<?xml version="1.0" encoding="utf8" standalone="no"?>
<svg viewBox="0 0 540.82623 444.03369" xmlns="http://www.w3.org/2000/svg" xmlns:xlink="http://www.w3.org/1999/xlink">
<defs>
<linearGradient id="linearGradient9918">
<stop offset="0"/>
<stop offset="1" stop-opacity="0"/>
</linearGradient>
<linearGradient gradientUnits="userSpaceOnUse" id="linearGradient2900" x1="-205.14287" x2="20.44642" y1="434.84152" y2="474.84152">
<stop offset="0" stop-color="#ed7300"/>
<stop offset="1" stop-color="#ed7300" stop-opacity="0"/>
</linearGradient>
<linearGradient gradientUnits="userSpaceOnUse" id="linearGradient9950" x1="-333.52135" x2="-156.07562" xlink:href="#linearGradient9918" y1="1573.6976" y2="1563.71283"/>
<linearGradient gradientUnits="userSpaceOnUse" id="linearGradient9952" x1="-170.8173" x2="5.16963" xlink:href="#linearGradient9918" y1="1541.58292" y2="1516.77719"/>
<linearGradient gradientUnits="userSpaceOnUse" id="linearGradient9954" x1="-5.28758" x2="165.49188" xlink:href="#linearGradient9918" y1="1514.97816" y2="1465.7738"/>
<radialGradient cx="768.57141" cy="500.93384" gradientTransform="matrix(1,0,0,.94789,0,26.10344)" gradientUnits="userSpaceOnUse" id="radialGradient2876" r="603.125">
<stop offset="0" stop-color="#edbd00"/>
<stop offset="1" stop-color="#edbd00" stop-opacity="0"/>
</radialGradient>
</defs>
<g transform="matrix(.36006,0,0,.36006,91.01136,60.90418)">
<g transform="matrix(.99395,.10982,-.10982,.99395,94.90745,-8.29823)">
<path d="m703.42039-132.30682-141.65269,128.87812 32.69388,86.14984 70.32213,18.66258 38.63668-233.69054z" fill="#ed8400" fill-rule="evenodd" stroke="#000" stroke-width="3.61567"/>
<path d="m595.68202,83.64456 106.81494-214.73091" fill="#ed8400" fill-rule="evenodd" stroke="#000" stroke-width="3.61567"/>
</g>
<g transform="matrix(.21782,-.97599,.97599,.21782,-514.9388,173.8563)">
<path d="m-241.55798,1378.0995c0,0-80.97682,343.8084-76.85936,450.1762s46.66461-12.3524 93.32922-24.7048 41.91204-37.0658 88.57665-49.4182 51.41718,12.361 98.08179.0086 39.99217-34.9036 86.65678-47.256 53.33705,10.1988 100.00166-2.1536 39.0605-37.0658 85.72511-49.4182 54.26872,12.361 100.93333.0086 160.58116,61.0757 93.32922-24.7048-362.33697-318.4173-362.33697-318.4173" fill="#ff9d00" fill-rule="evenodd" stroke="#000" stroke-width="6.4"/>
<path d="m-142.76248,1357.3471-70.96069,14.8468c0,0 8.82267,322.8753 12.55143,421.5819 10.52252-4.7621 31.07671-28.5594 58.63459-38.3732s56.67403-4.654 79.86509,1.9642" fill="url(#linearGradient9950)" fill-rule="evenodd" opacity=".4"/>
<path d="m-6.59596,1327.9535-62.9254,13.2231c0,0 36.79254,308.6439 48.77205,406.6916 10.08688-5.6262 38.51251-24.033 58.12416-38.3006 19.45352-14.1525 53.17734-6.232 76.84106-1.5786" fill="url(#linearGradient9952)" fill-rule="evenodd" opacity=".4"/>
<path d="m112.75598,1348.9697-46.62771-36.3345c0,0 80.97967,292.0643 106.57057,387.4686 11.25107-4.4492 28.84579-19.2558 54.81043-29.1066 26.35379-9.9985 48.03884-38.491 72.12103-37.1971" fill="url(#linearGradient9954)" fill-rule="evenodd" opacity=".4"/>
</g>
<g transform="matrix(.72107,-.69287,.69287,.72107,-217.5166,452.5624)">
<path d="m703.42039-132.30682-141.65269,128.87812 32.69388,86.14984 70.32213,18.66258 38.63668-233.69054z" fill="#ed8400" fill-rule="evenodd" stroke="#000" stroke-width="3.61567"/>
<path d="m595.68202,83.64456 106.81494-214.73091" fill="#ed8400" fill-rule="evenodd" stroke="#000" stroke-width="3.61567"/>
</g>
<g transform="matrix(.90924,-.41628,.41628,.90924,-253.9977,254.792)">
<path d="m703.42039-132.30682-141.65269,128.87812 32.69388,86.14984 70.32213,18.66258 38.63668-233.69054z" fill="#ed8400" fill-rule="evenodd" stroke="#000" stroke-width="3.61567"/>
<path d="m595.68202,83.64456 106.81494-214.73091" fill="#ed8400" fill-rule="evenodd" stroke="#000" stroke-width="3.61567"/>
</g>
<g transform="matrix(.53538,-.84461,.84461,.53538,-285.5892,647.1869)">
<path d="m703.42039-132.30682-141.65269,128.87812 32.69388,86.14984 70.32213,18.66258 38.63668-233.69054z" fill="#ed8400" fill-rule="evenodd" stroke="#000" stroke-width="3.61567"/>
<path d="m595.68202,83.64456 106.81494-214.73091" fill="#ed8400" fill-rule="evenodd" stroke="#000" stroke-width="3.61567"/>
</g>
<g transform="matrix(.40247,-.91543,.91543,.40247,-265.6061,777.2685)">
<path d="m703.42039-132.30682-141.65269,128.87812 32.69388,86.14984 70.32213,18.66258 38.63668-233.69054z" fill="#ed8400" fill-rule="evenodd" stroke="#000" stroke-width="3.61567"/>
<path d="m595.68202,83.64456 106.81494-214.73091" fill="#ed8400" fill-rule="evenodd" stroke="#000" stroke-width="3.61567"/>
</g>
<g transform="matrix(-3.202957e-2,-.99949,.99949,-3.202957e-2,-73.43019,1048.788)">
<path d="m703.42039-132.30682-141.65269,128.87812 32.69388,86.14984 70.32213,18.66258 38.63668-233.69054z" fill="#ed8400" fill-rule="evenodd" stroke="#000" stroke-width="3.61567"/>
<path d="m595.68202,83.64456 106.81494-214.73091" fill="#ed8400" fill-rule="evenodd" stroke="#000" stroke-width="3.61567"/>
</g>
<g transform="matrix(-9.494077e-2,-.99548,.99548,-9.494077e-2,-38.76666,940.0262)">
<path d="m703.42039-132.30682-141.65269,128.87812 32.69388,86.14984 70.32213,18.66258 38.63668-233.69054z" fill="#ed8400" fill-rule="evenodd" stroke="#000" stroke-width="3.61567"/>
<path d="m595.68202,83.64456 106.81494-214.73091" fill="#ed8400" fill-rule="evenodd" stroke="#000" stroke-width="3.61567"/>
</g>
<g transform="matrix(-.70369,-.7105,.7105,-.70369,358.0893,1036.907)">
<path d="m703.42039-132.30682-141.65269,128.87812 32.69388,86.14984 70.32213,18.66258 38.63668-233.69054z" fill="#ed8400" fill-rule="evenodd" stroke="#000" stroke-width="3.61567"/>
<path d="m595.68202,83.64456 106.81494-214.73091" fill="#ed8400" fill-rule="evenodd" stroke="#000" stroke-width="3.61567"/>
</g>
<g transform="matrix(-.41434,-.91012,.91012,-.41434,181.0264,1117.545)">
<path d="m703.42039-132.30682-141.65269,128.87812 32.69388,86.14984 70.32213,18.66258 38.63668-233.69054z" fill="#ed8400" fill-rule="evenodd" stroke="#000" stroke-width="3.61567"/>
<path d="m595.68202,83.64456 106.81494-214.73091" fill="#ed8400" fill-rule="evenodd" stroke="#000" stroke-width="3.61567"/>
</g>
<g transform="translate(-137.189,-6.76785)">
<path d="m703.42039-132.30682-141.65269,128.87812 32.69388,86.14984 70.32213,18.66258 38.63668-233.69054z" fill="#ed8400" fill-rule="evenodd" stroke="#000" stroke-width="3.61567"/>
<path d="m595.68202,83.64456 106.81494-214.73091" fill="#ed8400" fill-rule="evenodd" stroke="#000" stroke-width="3.61567"/>
</g>
<g transform="matrix(.81953,.57303,-.57303,.81953,417.4547,-62.80167)">
<path d="m703.42039-132.30682-141.65269,128.87812 32.69388,86.14984 70.32213,18.66258 38.63668-233.69054z" fill="#ed8400" fill-rule="evenodd" stroke="#000" stroke-width="3.61567"/>
<path d="m595.68202,83.64456 106.81494-214.73091" fill="#ed8400" fill-rule="evenodd" stroke="#000" stroke-width="3.61567"/>
</g>
<g transform="matrix(.79384,.60813,-.60813,.79384,478.7921,111.3181)">
<path d="m703.42039-132.30682-141.65269,128.87812 32.69388,86.14984 70.32213,18.66258 38.63668-233.69054z" fill="#ed8400" fill-rule="evenodd" stroke="#000" stroke-width="3.61567"/>
<path d="m595.68202,83.64456 106.81494-214.73091" fill="#ed8400" fill-rule="evenodd" stroke="#000" stroke-width="3.61567"/>
</g>
<g transform="matrix(.26539,.96414,-.96414,.26539,736.6845,122.0591)">
<path d="m703.42039-132.30682-141.65269,128.87812 32.69388,86.14984 70.32213,18.66258 38.63668-233.69054z" fill="#ed8400" fill-rule="evenodd" stroke="#000" stroke-width="3.61567"/>
<path d="m595.68202,83.64456 106.81494-214.73091" fill="#ed8400" fill-rule="evenodd" stroke="#000" stroke-width="3.61567"/>
</g>
<g transform="matrix(-.35729,.934,-.934,-.35729,985.6313,276.13)">
<path d="m703.42039-132.30682-141.65269,128.87812 32.69388,86.14984 70.32213,18.66258 38.63668-233.69054z" fill="#ed8400" fill-rule="evenodd" stroke="#000" stroke-width="3.61567"/>
<path d="m595.68202,83.64456 106.81494-214.73091" fill="#ed8400" fill-rule="evenodd" stroke="#000" stroke-width="3.61567"/>
</g>
<g transform="translate(-226.8798,-35.03341)">
<path d="m703.42039-132.30682-141.65269,128.87812 32.69388,86.14984 70.32213,18.66258 38.63668-233.69054z" fill="#ed8400" fill-rule="evenodd" stroke="#000" stroke-width="3.61567"/>
<path d="m595.68202,83.64456 106.81494-214.73091" fill="#ed8400" fill-rule="evenodd" stroke="#000" stroke-width="3.61567"/>
</g>
<g transform="matrix(-.86006,-.51019,.51019,-.86006,453.2857,954.1351)">
<path d="m703.42039-132.30682-141.65269,128.87812 32.69388,86.14984 70.32213,18.66258 38.63668-233.69054z" fill="#ed8400" fill-rule="evenodd" stroke="#000" stroke-width="3.61567"/>
<path d="m595.68202,83.64456 106.81494-214.73091" fill="#ed8400" fill-rule="evenodd" stroke="#000" stroke-width="3.61567"/>
</g>
<g transform="matrix(.72107,-.69287,.69287,.72107,-319.7152,478.9569)">
<path d="m703.42039-132.30682-141.65269,128.87812 32.69388,86.14984 70.32213,18.66258 38.63668-233.69054z" fill="#ed8400" fill-rule="evenodd" stroke="#000" stroke-width="3.61567"/>
<path d="m595.68202,83.64456 106.81494-214.73091" fill="#ed8400" fill-rule="evenodd" stroke="#000" stroke-width="3.61567"/>
</g>
<g transform="matrix(.20607,-.97854,.97854,.20607,-199.8211,876.1108)">
<path d="m703.42039-132.30682-141.65269,128.87812 32.69388,86.14984 70.32213,18.66258 38.63668-233.69054z" fill="#ed8400" fill-rule="evenodd" stroke="#000" stroke-width="3.61567"/>
<path d="m595.68202,83.64456 106.81494-214.73091" fill="#ed8400" fill-rule="evenodd" stroke="#000" stroke-width="3.61567"/>
</g>
<g transform="matrix(-.12794,-.99178,.99178,-.12794,-29.74262,1128.313)">
<path d="m703.42039-132.30682-141.65269,128.87812 32.69388,86.14984 70.32213,18.66258 38.63668-233.69054z" fill="#ed8400" fill-rule="evenodd" stroke="#000" stroke-width="3.61567"/>
<path d="m595.68202,83.64456 106.81494-214.73091" fill="#ed8400" fill-rule="evenodd" stroke="#000" stroke-width="3.61567"/>
</g>
<path d="m1060,500.93362a600,568.57141 0 1,1 -1200,0 600,568.57141 0 1,1 1200,0z" fill="#ed8400" stroke="#000" stroke-linecap="round" stroke-linejoin="round" stroke-width="6.25" transform="translate(-37.14286,-8.57143)"/>
<path d="m426.28571-70.48661c-331.2,0-600,254.71111-600,568.5625 0,178.52512 87.04292,337.83062 223,442.09375-87.40757-98.7828-140.15625-226.03566-140.15625-364.9375 1e-005-313.85142 268.8-568.59375 600.00005-568.59375 142.8153,0 273.9696,47.45738 377.0312,126.5-110.0916-124.42034-275.2536-203.625-459.875-203.625z" fill="url(#linearGradient2900)"/>
<path d="m1060,500.93362a600,568.57141 0 1,1 -1200,0 600,568.57141 0 1,1 1200,0z" fill="url(#radialGradient2876)" transform="translate(-42.28557,-14.57141)"/>
<path d="m568.57143,496.64789a148.57143,138.57143 0 1,1 -297.14286,0 148.57143,138.57143 0 1,1 297.14286,0z" fill="#fff" opacity=".7" stroke="#868686" stroke-linecap="round" stroke-linejoin="round" stroke-width="27.26065" transform="matrix(.92612,0,0,.99301,-178.3969,-290.2422)"/>
<path d="m568.57143,496.64789a148.57143,138.57143 0 1,1 -297.14286,0 148.57143,138.57143 0 1,1 297.14286,0z" fill="#fff" opacity=".7" stroke="#3c34ff" stroke-linecap="round" stroke-linejoin="round" stroke-opacity=".18333" stroke-width="5" transform="matrix(.92612,0,0,.99301,-177.2568,-289.8073)"/>
<path d="m206.99475,91.32635c-58.06301,0-105.18626,47.11967-105.18626,105.18626 0,41.99352 24.7153,78.1465 60.32144,95.00925-18.37404-18.94226-29.74265-44.71942-29.74265-73.17408 0-58.06659 47.12325-105.18626 105.18626-105.18626 16.06398,0 31.24177,3.70499 44.86482,10.15311-19.1205-19.70521-45.83988-31.98828-75.44361-31.98828z" fill="#868686" opacity=".7" stroke="#3c34ff" stroke-linecap="round" stroke-linejoin="round" stroke-opacity=".18333" stroke-width="3.82235"/>
<path d="m568.57143,496.64789a148.57143,138.57143 0 1,1 -297.14286,0 148.57143,138.57143 0 1,1 297.14286,0z" stroke="#3c34ff" stroke-linecap="round" stroke-linejoin="round" stroke-opacity=".18333" stroke-width="5" transform="matrix(.189,0,0,.20265,126.3399,103.1432)"/>
<g transform="translate(180.8572,.85714)">
<path d="m568.57143,496.64789a148.57143,138.57143 0 1,1 -297.14286,0 148.57143,138.57143 0 1,1 297.14286,0z" fill="#fff" opacity=".7" stroke="#868686" stroke-linecap="round" stroke-linejoin="round" stroke-width="27.26065" transform="matrix(.92612,0,0,.99301,-178.3969,-290.2422)"/>
<path d="m568.57143,496.64789a148.57143,138.57143 0 1,1 -297.14286,0 148.57143,138.57143 0 1,1 297.14286,0z" fill="#fff" opacity=".7" stroke="#3c34ff" stroke-linecap="round" stroke-linejoin="round" stroke-opacity=".18333" stroke-width="5" transform="matrix(.92612,0,0,.99301,-177.2568,-289.8073)"/>
<path d="m206.99475,91.32635c-58.06301,0-105.18626,47.11967-105.18626,105.18626 0,41.99352 24.7153,78.1465 60.32144,95.00925-18.37404-18.94226-29.74265-44.71942-29.74265-73.17408 0-58.06659 47.12325-105.18626 105.18626-105.18626 16.06398,0 31.24177,3.70499 44.86482,10.15311-19.1205-19.70521-45.83988-31.98828-75.44361-31.98828z" fill="#868686" opacity=".7" stroke="#3c34ff" stroke-linecap="round" stroke-linejoin="round" stroke-opacity=".18333" stroke-width="3.82235"/>
<path d="m568.57143,496.64789a148.57143,138.57143 0 1,1 -297.14286,0 148.57143,138.57143 0 1,1 297.14286,0z" stroke="#3c34ff" stroke-linecap="round" stroke-linejoin="round" stroke-opacity=".18333" stroke-width="5" transform="matrix(.189,0,0,.20265,126.3399,103.1432)"/>
</g>
<path d="m185.71428,563.79077a30,31.42857 0 1,1 -60,0 30,31.42857 0 1,1 60,0z" fill="#ed8400" stroke="#000" stroke-linecap="round" stroke-linejoin="round" stroke-width="6.25"/>
<g transform="matrix(.96609,.2582,-.2582,.96609,17.45768,-163.8581)">
<path d="m703.42039-132.30682-141.65269,128.87812 32.69388,86.14984 70.32213,18.66258 38.63668-233.69054z" fill="#ed8400" fill-rule="evenodd" stroke="#000" stroke-width="3.61567"/>
<path d="m595.68202,83.64456 106.81494-214.73091" fill="#ed8400" fill-rule="evenodd" stroke="#000" stroke-width="3.61567"/>
</g>
<path d="m185.71428,563.79077a30,31.42857 0 1,1 -60,0 30,31.42857 0 1,1 60,0z" fill="#c20000" stroke="#000" stroke-linecap="round" stroke-linejoin="round" stroke-width="6.25" transform="matrix(1.37209,0,0,1.37209,-55.615,-211.21119)"/>
<path d="m185.71428,563.79077a30,31.42857 0 1,1 -60,0 30,31.42857 0 1,1 60,0z" fill="#ed8400" stroke="#000" stroke-linecap="round" stroke-linejoin="round" stroke-width="6.25" transform="matrix(.79328,0,0,.79328,34.514,115.11711)"/>
<g transform="matrix(.87271,.48824,-.48824,.87271,358.7331,-107.6048)">
<path d="m703.42039-132.30682-141.65269,128.87812 32.69388,86.14984 70.32213,18.66258 38.63668-233.69054z" fill="#ed8400" fill-rule="evenodd" stroke="#000" stroke-width="3.61567"/>
<path d="m595.68202,83.64456 106.81494-214.73091" fill="#ed8400" fill-rule="evenodd" stroke="#000" stroke-width="3.61567"/>
</g>
<g transform="matrix(.907,.42112,-.42112,.907,216.5118,-139.0125)">
<path d="m703.42039-132.30682-141.65269,128.87812 32.69388,86.14984 70.32213,18.66258 38.63668-233.69054z" fill="#ed8400" fill-rule="evenodd" stroke="#000" stroke-width="3.61567"/>
<path d="m595.68202,83.64456 106.81494-214.73091" fill="#ed8400" fill-rule="evenodd" stroke="#000" stroke-width="3.61567"/>
</g>
<g transform="matrix(.81953,.57303,-.57303,.81953,251.7008,-11.4229)">
<path d="m703.42039-132.30682-141.65269,128.87812 32.69388,86.14984 70.32213,18.66258 38.63668-233.69054z" fill="#ed8400" fill-rule="evenodd" stroke="#000" stroke-width="3.61567"/>
<path d="m595.68202,83.64456 106.81494-214.73091" fill="#ed8400" fill-rule="evenodd" stroke="#000" stroke-width="3.61567"/>
</g>
<g transform="matrix(.79384,.60813,-.60813,.79384,296.4912,175.0431)">
<path d="m703.42039-132.30682-141.65269,128.87812 32.69388,86.14984 70.32213,18.66258 38.63668-233.69054z" fill="#ed8400" fill-rule="evenodd" stroke="#000" stroke-width="3.61567"/>
<path d="m595.68202,83.64456 106.81494-214.73091" fill="#ed8400" fill-rule="evenodd" stroke="#000" stroke-width="3.61567"/>
</g>
<g transform="matrix(2.626713e-2,-.60334,.31087,1.3534e-2,263.0939,489.7913)">
<path d="m-241.55798,1378.0995c0,0-80.97682,343.8084-76.85936,450.1762s46.66461-12.3524 93.32922-24.7048 41.91204-37.0658 88.57665-49.4182 51.41718,12.361 98.08179.0086 39.99217-34.9036 86.65678-47.256 53.33705,10.1988 100.00166-2.1536 39.0605-37.0658 85.72511-49.4182 54.26872,12.361 100.93333.0086 160.58116,61.0757 93.32922-24.7048-362.33697-318.4173-362.33697-318.4173" fill="#ff9d00" fill-rule="evenodd" stroke="#000" stroke-width="6.4"/>
<path d="m-142.76248,1357.3471-70.96069,14.8468c0,0 8.82267,322.8753 12.55143,421.5819 10.52252-4.7621 31.07671-28.5594 58.63459-38.3732s56.67403-4.654 79.86509,1.9642" fill="url(#linearGradient9950)" fill-rule="evenodd" opacity=".4"/>
<path d="m-6.59596,1327.9535-62.9254,13.2231c0,0 36.79254,308.6439 48.77205,406.6916 10.08688-5.6262 38.51251-24.033 58.12416-38.3006 19.45352-14.1525 53.17734-6.232 76.84106-1.5786" fill="url(#linearGradient9952)" fill-rule="evenodd" opacity=".4"/>
<path d="m112.75598,1348.9697-46.62771-36.3345c0,0 80.97967,292.0643 106.57057,387.4686 11.25107-4.4492 28.84579-19.2558 54.81043-29.1066 26.35379-9.9985 48.03884-38.491 72.12103-37.1971" fill="url(#linearGradient9954)" fill-rule="evenodd" opacity=".4"/>
</g>
<g transform="matrix(.59101,.80667,-.80667,.59101,596.2664,85.06293)">
<path d="m703.42039-132.30682-141.65269,128.87812 32.69388,86.14984 70.32213,18.66258 38.63668-233.69054z" fill="#ed8400" fill-rule="evenodd" stroke="#000" stroke-width="3.61567"/>
<path d="m595.68202,83.64456 106.81494-214.73091" fill="#ed8400" fill-rule="evenodd" stroke="#000" stroke-width="3.61567"/>
</g>
<g transform="matrix(.70651,.7077,-.7077,.70651,513.0506,-63.5811)">
<path d="m703.42039-132.30682-141.65269,128.87812 32.69388,86.14984 70.32213,18.66258 38.63668-233.69054z" fill="#ed8400" fill-rule="evenodd" stroke="#000" stroke-width="3.61567"/>
<path d="m595.68202,83.64456 106.81494-214.73091" fill="#ed8400" fill-rule="evenodd" stroke="#000" stroke-width="3.61567"/>
</g>
<g transform="matrix(-.15954,.98719,-.98719,-.15954,829.9327,310.3255)">
<path d="m703.42039-132.30682-141.65269,128.87812 32.69388,86.14984 70.32213,18.66258 38.63668-233.69054z" fill="#ed8400" fill-rule="evenodd" stroke="#000" stroke-width="3.61567"/>
<path d="m595.68202,83.64456 106.81494-214.73091" fill="#ed8400" fill-rule="evenodd" stroke="#000" stroke-width="3.61567"/>
</g>
<g transform="matrix(4.564402e-2,.99896,-.99896,4.564402e-2,843.6471,231.4495)">
<path d="m703.42039-132.30682-141.65269,128.87812 32.69388,86.14984 70.32213,18.66258 38.63668-233.69054z" fill="#ed8400" fill-rule="evenodd" stroke="#000" stroke-width="3.61567"/>
<path d="m595.68202,83.64456 106.81494-214.73091" fill="#ed8400" fill-rule="evenodd" stroke="#000" stroke-width="3.61567"/>
</g>
<g transform="matrix(.26539,.96414,-.96414,.26539,622.9052,159.9157)">
<path d="m703.42039-132.30682-141.65269,128.87812 32.69388,86.14984 70.32213,18.66258 38.63668-233.69054z" fill="#ed8400" fill-rule="evenodd" stroke="#000" stroke-width="3.61567"/>
<path d="m595.68202,83.64456 106.81494-214.73091" fill="#ed8400" fill-rule="evenodd" stroke="#000" stroke-width="3.61567"/>
</g>
<g transform="matrix(.25145,-.59629,.59629,.25145,-236.78616,586.75136)">
<path d="m703.42039-132.30682-141.65269,128.87812 32.69388,86.14984 70.32213,18.66258 38.63668-233.69054z" fill="#ed8400" fill-rule="evenodd" stroke="#000" stroke-width="3.61567"/>
<path d="m595.68202,83.64456 106.81494-214.73091" fill="#ed8400" fill-rule="evenodd" stroke="#000" stroke-width="3.61567"/>
</g>
<g transform="matrix(.50205,-.40832,.40832,.50205,-32.30788,208.34028)">
<path d="m703.42039-132.30682-141.65269,128.87812 32.69388,86.14984 70.32213,18.66258 38.63668-233.69054z" fill="#ed8400" fill-rule="evenodd" stroke="#000" stroke-width="3.61567"/>
<path d="m595.68202,83.64456 106.81494-214.73091" fill="#ed8400" fill-rule="evenodd" stroke="#000" stroke-width="3.61567"/>
</g>
</g>
</svg>
