<?xml version="1.0" encoding="UTF-8" standalone="no"?>
<!-- Created with Inkscape (http://www.inkscape.org/) -->
<svg
   xmlns:dc="http://purl.org/dc/elements/1.1/"
   xmlns:cc="http://web.resource.org/cc/"
   xmlns:rdf="http://www.w3.org/1999/02/22-rdf-syntax-ns#"
   xmlns:svg="http://www.w3.org/2000/svg"
   xmlns="http://www.w3.org/2000/svg"
   xmlns:xlink="http://www.w3.org/1999/xlink"
   xmlns:sodipodi="http://sodipodi.sourceforge.net/DTD/sodipodi-0.dtd"
   xmlns:inkscape="http://www.inkscape.org/namespaces/inkscape"
   width="540.82623"
   height="444.03369"
   id="svg2"
   sodipodi:version="0.32"
   inkscape:version="0.45.1"
   sodipodi:docbase="G:\SVG_Clipart\inwork"
   sodipodi:docname="kugelfisch_or.svg"
   inkscape:output_extension="org.inkscape.output.svg.inkscape"
   version="1.0">
  <defs
     id="defs4">
    <linearGradient
       inkscape:collect="always"
       id="linearGradient9918">
      <stop
         style="stop-color:black;stop-opacity:1;"
         offset="0"
         id="stop9920" />
      <stop
         style="stop-color:black;stop-opacity:0;"
         offset="1"
         id="stop9922" />
    </linearGradient>
    <linearGradient
       inkscape:collect="always"
       id="linearGradient2886">
      <stop
         style="stop-color:#ed7300;stop-opacity:1;"
         offset="0"
         id="stop2888" />
      <stop
         style="stop-color:#ed7300;stop-opacity:0;"
         offset="1"
         id="stop2890" />
    </linearGradient>
    <linearGradient
       inkscape:collect="always"
       id="linearGradient2870">
      <stop
         style="stop-color:#edbd00;stop-opacity:1;"
         offset="0"
         id="stop2872" />
      <stop
         style="stop-color:#edbd00;stop-opacity:0;"
         offset="1"
         id="stop2874" />
    </linearGradient>
    <radialGradient
       inkscape:collect="always"
       xlink:href="#linearGradient2870"
       id="radialGradient2876"
       cx="768.57141"
       cy="500.93384"
       fx="768.57141"
       fy="500.93384"
       r="603.125"
       gradientTransform="matrix(1,0,0,0.94789,0,26.10344)"
       gradientUnits="userSpaceOnUse" />
    <linearGradient
       inkscape:collect="always"
       xlink:href="#linearGradient2886"
       id="linearGradient2900"
       x1="-197.14287"
       y1="434.84152"
       x2="28.446421"
       y2="474.84152"
       gradientUnits="userSpaceOnUse"
       gradientTransform="translate(-8,0)" />
    <linearGradient
       inkscape:collect="always"
       xlink:href="#linearGradient9918"
       id="linearGradient9950"
       gradientUnits="userSpaceOnUse"
       gradientTransform="matrix(0.673934,0.738791,-0.738791,0.673934,646.5155,351.0087)"
       x1="242.8316"
       y1="1548.0553"
       x2="355.04175"
       y2="1410.2308" />
    <linearGradient
       inkscape:collect="always"
       xlink:href="#linearGradient9918"
       id="linearGradient9952"
       gradientUnits="userSpaceOnUse"
       gradientTransform="matrix(0.733421,0.679775,-0.679775,0.733421,703.4142,241.1358)"
       x1="242.8316"
       y1="1548.0553"
       x2="355.04175"
       y2="1410.2308" />
    <linearGradient
       inkscape:collect="always"
       xlink:href="#linearGradient9918"
       id="linearGradient9954"
       gradientUnits="userSpaceOnUse"
       gradientTransform="matrix(0.821382,0.570378,-0.570378,0.821382,678.2316,104.9276)"
       x1="242.8316"
       y1="1548.0553"
       x2="355.04175"
       y2="1410.2308" />
    <linearGradient
       inkscape:collect="always"
       xlink:href="#linearGradient9918"
       id="linearGradient9972"
       gradientUnits="userSpaceOnUse"
       gradientTransform="matrix(0.673934,0.738791,-0.738791,0.673934,646.5155,351.0087)"
       x1="242.8316"
       y1="1548.0553"
       x2="355.04175"
       y2="1410.2308" />
    <linearGradient
       inkscape:collect="always"
       xlink:href="#linearGradient9918"
       id="linearGradient9974"
       gradientUnits="userSpaceOnUse"
       gradientTransform="matrix(0.733421,0.679775,-0.679775,0.733421,703.4142,241.1358)"
       x1="242.8316"
       y1="1548.0553"
       x2="355.04175"
       y2="1410.2308" />
    <linearGradient
       inkscape:collect="always"
       xlink:href="#linearGradient9918"
       id="linearGradient9976"
       gradientUnits="userSpaceOnUse"
       gradientTransform="matrix(0.821382,0.570378,-0.570378,0.821382,678.2316,104.9276)"
       x1="242.8316"
       y1="1548.0553"
       x2="355.04175"
       y2="1410.2308" />
  </defs>
  <sodipodi:namedview
     id="base"
     pagecolor="#ffffff"
     bordercolor="#666666"
     borderopacity="1.0"
     inkscape:pageopacity="0.0"
     inkscape:pageshadow="2"
     inkscape:zoom="0.57415478"
     inkscape:cx="632.73743"
     inkscape:cy="286.26412"
     inkscape:document-units="px"
     inkscape:current-layer="layer1"
     inkscape:window-width="1280"
     inkscape:window-height="975"
     inkscape:window-x="0"
     inkscape:window-y="22" />
  <metadata
     id="metadata7">
    <rdf:RDF>
      <cc:Work
         rdf:about="">
        <dc:format>image/svg+xml</dc:format>
        <dc:type
           rdf:resource="http://purl.org/dc/dcmitype/StillImage" />
      </cc:Work>
    </rdf:RDF>
  </metadata>
  <g
     inkscape:label="Ebene 1"
     inkscape:groupmode="layer"
     id="layer1"
     transform="translate(-18.939574,-17.212828)">
    <g
       transform="matrix(0.3600643,0,0,0.3600643,109.95093,78.117008)"
       id="g2418">
      <g
         id="g2420"
         transform="matrix(0.993951,0.109821,-0.109821,0.993951,94.90745,-8.29823)">
        <path
           id="path2422"
           d="M 703.42039,-132.30682 L 561.7677,-3.4286971 L 594.46158,82.721143 L 664.78371,101.38372 L 703.42039,-132.30682 z "
           style="fill:#ed8400;fill-opacity:1;fill-rule:evenodd;stroke:#000000;stroke-width:3.61567235;stroke-linecap:butt;stroke-linejoin:miter;stroke-miterlimit:4;stroke-dasharray:none;stroke-opacity:1" />
        <path
           id="path2424"
           d="M 595.68202,83.644563 L 702.49696,-131.08635"
           style="fill:#ed8400;fill-opacity:1;fill-rule:evenodd;stroke:#000000;stroke-width:3.61567235;stroke-linecap:butt;stroke-linejoin:miter;stroke-miterlimit:4;stroke-dasharray:none;stroke-opacity:1" />
      </g>
      <g
         id="g2426"
         transform="matrix(0.217825,-0.975988,0.975988,0.217825,-514.9388,173.8563)">
        <path
           sodipodi:nodetypes="czzzzzzzzzc"
           id="path2428"
           d="M -241.55798,1378.0995 C -241.55798,1378.0995 -322.5348,1721.9079 -318.41734,1828.2757 C -314.29987,1934.6436 -271.75273,1815.9233 -225.08812,1803.5709 C -178.42351,1791.2185 -183.17608,1766.5051 -136.51147,1754.1527 C -89.846861,1741.8003 -85.09429,1766.5137 -38.42968,1754.1613 C 8.23493,1741.8089 1.5624861,1719.2577 48.227096,1706.9053 C 94.891706,1694.5529 101.56415,1717.1041 148.22876,1704.7517 C 194.89337,1692.3993 187.28926,1667.6859 233.95387,1655.3335 C 280.61848,1642.9811 288.22259,1667.6945 334.8872,1655.3421 C 381.55181,1642.9897 495.46836,1716.4178 428.21642,1630.6373 C 360.96448,1544.8568 65.879449,1312.22 65.879449,1312.22"
           style="fill:#ff9d00;fill-opacity:1;fill-rule:evenodd;stroke:#000000;stroke-width:6.4000001;stroke-linecap:butt;stroke-linejoin:miter;stroke-miterlimit:4;stroke-dasharray:none;stroke-opacity:1" />
        <path
           sodipodi:nodetypes="ccczc"
           id="path2430"
           d="M -142.76248,1357.3471 L -213.72317,1372.1939 C -213.72317,1372.1939 -204.9005,1695.0692 -201.17174,1793.7758 C -190.64922,1789.0137 -170.09503,1765.2164 -142.53715,1755.4026 C -114.97926,1745.5888 -85.863122,1750.7486 -62.672058,1757.3668"
           style="opacity:0.4;fill:url(#linearGradient9950);fill-opacity:1;fill-rule:evenodd;stroke:none;stroke-width:1px;stroke-linecap:butt;stroke-linejoin:miter;stroke-opacity:1" />
        <path
           sodipodi:nodetypes="ccczc"
           id="path2432"
           d="M -6.5959582,1327.9535 L -69.521354,1341.1766 C -69.521354,1341.1766 -32.728812,1649.8205 -20.749307,1747.8682 C -10.662423,1742.242 17.763205,1723.8352 37.374857,1709.5676 C 56.828382,1695.4151 90.552198,1703.3356 114.21592,1707.989"
           style="opacity:0.4;fill:url(#linearGradient9952);fill-opacity:1;fill-rule:evenodd;stroke:none;stroke-width:1px;stroke-linecap:butt;stroke-linejoin:miter;stroke-opacity:1" />
        <path
           sodipodi:nodetypes="ccczc"
           id="path2434"
           d="M 112.75598,1348.9697 L 66.128265,1312.6352 C 66.128265,1312.6352 147.10793,1604.6995 172.69884,1700.1038 C 183.94991,1695.6546 201.54463,1680.848 227.50927,1670.9972 C 253.86306,1660.9987 275.54811,1632.5062 299.6303,1633.8001"
           style="opacity:0.4;fill:url(#linearGradient9954);fill-opacity:1;fill-rule:evenodd;stroke:none;stroke-width:1px;stroke-linecap:butt;stroke-linejoin:miter;stroke-opacity:1" />
      </g>
      <g
         id="g2436"
         transform="matrix(0.721066,-0.692866,0.692866,0.721066,-217.5166,452.5624)">
        <path
           id="path2438"
           d="M 703.42039,-132.30682 L 561.7677,-3.4286971 L 594.46158,82.721143 L 664.78371,101.38372 L 703.42039,-132.30682 z "
           style="fill:#ed8400;fill-opacity:1;fill-rule:evenodd;stroke:#000000;stroke-width:3.61567235;stroke-linecap:butt;stroke-linejoin:miter;stroke-miterlimit:4;stroke-dasharray:none;stroke-opacity:1" />
        <path
           id="path2440"
           d="M 595.68202,83.644563 L 702.49696,-131.08635"
           style="fill:#ed8400;fill-opacity:1;fill-rule:evenodd;stroke:#000000;stroke-width:3.61567235;stroke-linecap:butt;stroke-linejoin:miter;stroke-miterlimit:4;stroke-dasharray:none;stroke-opacity:1" />
      </g>
      <g
         id="g2442"
         transform="matrix(0.909237,-0.416279,0.416279,0.909237,-253.9977,254.792)">
        <path
           id="path2444"
           d="M 703.42039,-132.30682 L 561.7677,-3.4286971 L 594.46158,82.721143 L 664.78371,101.38372 L 703.42039,-132.30682 z "
           style="fill:#ed8400;fill-opacity:1;fill-rule:evenodd;stroke:#000000;stroke-width:3.61567235;stroke-linecap:butt;stroke-linejoin:miter;stroke-miterlimit:4;stroke-dasharray:none;stroke-opacity:1" />
        <path
           id="path2446"
           d="M 595.68202,83.644563 L 702.49696,-131.08635"
           style="fill:#ed8400;fill-opacity:1;fill-rule:evenodd;stroke:#000000;stroke-width:3.61567235;stroke-linecap:butt;stroke-linejoin:miter;stroke-miterlimit:4;stroke-dasharray:none;stroke-opacity:1" />
      </g>
      <g
         id="g2448"
         transform="matrix(0.535383,-0.844609,0.844609,0.535383,-285.5892,647.1869)">
        <path
           id="path2450"
           d="M 703.42039,-132.30682 L 561.7677,-3.4286971 L 594.46158,82.721143 L 664.78371,101.38372 L 703.42039,-132.30682 z "
           style="fill:#ed8400;fill-opacity:1;fill-rule:evenodd;stroke:#000000;stroke-width:3.61567235;stroke-linecap:butt;stroke-linejoin:miter;stroke-miterlimit:4;stroke-dasharray:none;stroke-opacity:1" />
        <path
           id="path2452"
           d="M 595.68202,83.644563 L 702.49696,-131.08635"
           style="fill:#ed8400;fill-opacity:1;fill-rule:evenodd;stroke:#000000;stroke-width:3.61567235;stroke-linecap:butt;stroke-linejoin:miter;stroke-miterlimit:4;stroke-dasharray:none;stroke-opacity:1" />
      </g>
      <g
         id="g2454"
         transform="matrix(0.402473,-0.915431,0.915431,0.402473,-265.6061,777.2685)">
        <path
           id="path2456"
           d="M 703.42039,-132.30682 L 561.7677,-3.4286971 L 594.46158,82.721143 L 664.78371,101.38372 L 703.42039,-132.30682 z "
           style="fill:#ed8400;fill-opacity:1;fill-rule:evenodd;stroke:#000000;stroke-width:3.61567235;stroke-linecap:butt;stroke-linejoin:miter;stroke-miterlimit:4;stroke-dasharray:none;stroke-opacity:1" />
        <path
           id="path2458"
           d="M 595.68202,83.644563 L 702.49696,-131.08635"
           style="fill:#ed8400;fill-opacity:1;fill-rule:evenodd;stroke:#000000;stroke-width:3.61567235;stroke-linecap:butt;stroke-linejoin:miter;stroke-miterlimit:4;stroke-dasharray:none;stroke-opacity:1" />
      </g>
      <g
         id="g2460"
         transform="matrix(-3.202957e-2,-0.999487,0.999487,-3.202957e-2,-73.43019,1048.788)">
        <path
           id="path2462"
           d="M 703.42039,-132.30682 L 561.7677,-3.4286971 L 594.46158,82.721143 L 664.78371,101.38372 L 703.42039,-132.30682 z "
           style="fill:#ed8400;fill-opacity:1;fill-rule:evenodd;stroke:#000000;stroke-width:3.61567235;stroke-linecap:butt;stroke-linejoin:miter;stroke-miterlimit:4;stroke-dasharray:none;stroke-opacity:1" />
        <path
           id="path2464"
           d="M 595.68202,83.644563 L 702.49696,-131.08635"
           style="fill:#ed8400;fill-opacity:1;fill-rule:evenodd;stroke:#000000;stroke-width:3.61567235;stroke-linecap:butt;stroke-linejoin:miter;stroke-miterlimit:4;stroke-dasharray:none;stroke-opacity:1" />
      </g>
      <g
         id="g2466"
         transform="matrix(-9.494077e-2,-0.995483,0.995483,-9.494077e-2,-38.76666,940.0262)">
        <path
           id="path2468"
           d="M 703.42039,-132.30682 L 561.7677,-3.4286971 L 594.46158,82.721143 L 664.78371,101.38372 L 703.42039,-132.30682 z "
           style="fill:#ed8400;fill-opacity:1;fill-rule:evenodd;stroke:#000000;stroke-width:3.61567235;stroke-linecap:butt;stroke-linejoin:miter;stroke-miterlimit:4;stroke-dasharray:none;stroke-opacity:1" />
        <path
           id="path2470"
           d="M 595.68202,83.644563 L 702.49696,-131.08635"
           style="fill:#ed8400;fill-opacity:1;fill-rule:evenodd;stroke:#000000;stroke-width:3.61567235;stroke-linecap:butt;stroke-linejoin:miter;stroke-miterlimit:4;stroke-dasharray:none;stroke-opacity:1" />
      </g>
      <g
         id="g2472"
         transform="matrix(-0.703694,-0.710503,0.710503,-0.703694,358.0893,1036.907)">
        <path
           id="path2474"
           d="M 703.42039,-132.30682 L 561.7677,-3.4286971 L 594.46158,82.721143 L 664.78371,101.38372 L 703.42039,-132.30682 z "
           style="fill:#ed8400;fill-opacity:1;fill-rule:evenodd;stroke:#000000;stroke-width:3.61567235;stroke-linecap:butt;stroke-linejoin:miter;stroke-miterlimit:4;stroke-dasharray:none;stroke-opacity:1" />
        <path
           id="path2476"
           d="M 595.68202,83.644563 L 702.49696,-131.08635"
           style="fill:#ed8400;fill-opacity:1;fill-rule:evenodd;stroke:#000000;stroke-width:3.61567235;stroke-linecap:butt;stroke-linejoin:miter;stroke-miterlimit:4;stroke-dasharray:none;stroke-opacity:1" />
      </g>
      <g
         id="g2478"
         transform="matrix(-0.414343,-0.910121,0.910121,-0.414343,181.0264,1117.545)">
        <path
           id="path2480"
           d="M 703.42039,-132.30682 L 561.7677,-3.4286971 L 594.46158,82.721143 L 664.78371,101.38372 L 703.42039,-132.30682 z "
           style="fill:#ed8400;fill-opacity:1;fill-rule:evenodd;stroke:#000000;stroke-width:3.61567235;stroke-linecap:butt;stroke-linejoin:miter;stroke-miterlimit:4;stroke-dasharray:none;stroke-opacity:1" />
        <path
           id="path2482"
           d="M 595.68202,83.644563 L 702.49696,-131.08635"
           style="fill:#ed8400;fill-opacity:1;fill-rule:evenodd;stroke:#000000;stroke-width:3.61567235;stroke-linecap:butt;stroke-linejoin:miter;stroke-miterlimit:4;stroke-dasharray:none;stroke-opacity:1" />
      </g>
      <g
         id="g2484"
         transform="translate(-137.189,-6.76785)">
        <path
           id="path2486"
           d="M 703.42039,-132.30682 L 561.7677,-3.4286971 L 594.46158,82.721143 L 664.78371,101.38372 L 703.42039,-132.30682 z "
           style="fill:#ed8400;fill-opacity:1;fill-rule:evenodd;stroke:#000000;stroke-width:3.61567235;stroke-linecap:butt;stroke-linejoin:miter;stroke-miterlimit:4;stroke-dasharray:none;stroke-opacity:1" />
        <path
           id="path2488"
           d="M 595.68202,83.644563 L 702.49696,-131.08635"
           style="fill:#ed8400;fill-opacity:1;fill-rule:evenodd;stroke:#000000;stroke-width:3.61567235;stroke-linecap:butt;stroke-linejoin:miter;stroke-miterlimit:4;stroke-dasharray:none;stroke-opacity:1" />
      </g>
      <g
         id="g2490"
         transform="matrix(0.819532,0.573033,-0.573033,0.819532,417.4547,-62.80167)">
        <path
           id="path2492"
           d="M 703.42039,-132.30682 L 561.7677,-3.4286971 L 594.46158,82.721143 L 664.78371,101.38372 L 703.42039,-132.30682 z "
           style="fill:#ed8400;fill-opacity:1;fill-rule:evenodd;stroke:#000000;stroke-width:3.61567235;stroke-linecap:butt;stroke-linejoin:miter;stroke-miterlimit:4;stroke-dasharray:none;stroke-opacity:1" />
        <path
           id="path2494"
           d="M 595.68202,83.644563 L 702.49696,-131.08635"
           style="fill:#ed8400;fill-opacity:1;fill-rule:evenodd;stroke:#000000;stroke-width:3.61567235;stroke-linecap:butt;stroke-linejoin:miter;stroke-miterlimit:4;stroke-dasharray:none;stroke-opacity:1" />
      </g>
      <g
         id="g2496"
         transform="matrix(0.793838,0.608129,-0.608129,0.793838,478.7921,111.3181)">
        <path
           id="path2498"
           d="M 703.42039,-132.30682 L 561.7677,-3.4286971 L 594.46158,82.721143 L 664.78371,101.38372 L 703.42039,-132.30682 z "
           style="fill:#ed8400;fill-opacity:1;fill-rule:evenodd;stroke:#000000;stroke-width:3.61567235;stroke-linecap:butt;stroke-linejoin:miter;stroke-miterlimit:4;stroke-dasharray:none;stroke-opacity:1" />
        <path
           id="path2500"
           d="M 595.68202,83.644563 L 702.49696,-131.08635"
           style="fill:#ed8400;fill-opacity:1;fill-rule:evenodd;stroke:#000000;stroke-width:3.61567235;stroke-linecap:butt;stroke-linejoin:miter;stroke-miterlimit:4;stroke-dasharray:none;stroke-opacity:1" />
      </g>
      <g
         id="g2502"
         transform="matrix(0.265389,0.964142,-0.964142,0.265389,736.6845,122.0591)">
        <path
           id="path2504"
           d="M 703.42039,-132.30682 L 561.7677,-3.4286971 L 594.46158,82.721143 L 664.78371,101.38372 L 703.42039,-132.30682 z "
           style="fill:#ed8400;fill-opacity:1;fill-rule:evenodd;stroke:#000000;stroke-width:3.61567235;stroke-linecap:butt;stroke-linejoin:miter;stroke-miterlimit:4;stroke-dasharray:none;stroke-opacity:1" />
        <path
           id="path2506"
           d="M 595.68202,83.644563 L 702.49696,-131.08635"
           style="fill:#ed8400;fill-opacity:1;fill-rule:evenodd;stroke:#000000;stroke-width:3.61567235;stroke-linecap:butt;stroke-linejoin:miter;stroke-miterlimit:4;stroke-dasharray:none;stroke-opacity:1" />
      </g>
      <g
         id="g2508"
         transform="matrix(-0.357285,0.933996,-0.933996,-0.357285,985.6313,276.13)">
        <path
           id="path2510"
           d="M 703.42039,-132.30682 L 561.7677,-3.4286971 L 594.46158,82.721143 L 664.78371,101.38372 L 703.42039,-132.30682 z "
           style="fill:#ed8400;fill-opacity:1;fill-rule:evenodd;stroke:#000000;stroke-width:3.61567235;stroke-linecap:butt;stroke-linejoin:miter;stroke-miterlimit:4;stroke-dasharray:none;stroke-opacity:1" />
        <path
           id="path2512"
           d="M 595.68202,83.644563 L 702.49696,-131.08635"
           style="fill:#ed8400;fill-opacity:1;fill-rule:evenodd;stroke:#000000;stroke-width:3.61567235;stroke-linecap:butt;stroke-linejoin:miter;stroke-miterlimit:4;stroke-dasharray:none;stroke-opacity:1" />
      </g>
      <g
         id="g2514"
         transform="translate(-226.8798,-35.03341)">
        <path
           id="path2516"
           d="M 703.42039,-132.30682 L 561.7677,-3.4286971 L 594.46158,82.721143 L 664.78371,101.38372 L 703.42039,-132.30682 z "
           style="fill:#ed8400;fill-opacity:1;fill-rule:evenodd;stroke:#000000;stroke-width:3.61567235;stroke-linecap:butt;stroke-linejoin:miter;stroke-miterlimit:4;stroke-dasharray:none;stroke-opacity:1" />
        <path
           id="path2518"
           d="M 595.68202,83.644563 L 702.49696,-131.08635"
           style="fill:#ed8400;fill-opacity:1;fill-rule:evenodd;stroke:#000000;stroke-width:3.61567235;stroke-linecap:butt;stroke-linejoin:miter;stroke-miterlimit:4;stroke-dasharray:none;stroke-opacity:1" />
      </g>
      <g
         id="g2520"
         transform="matrix(-0.86006,-0.510193,0.510193,-0.86006,453.2857,954.1351)">
        <path
           id="path2522"
           d="M 703.42039,-132.30682 L 561.7677,-3.4286971 L 594.46158,82.721143 L 664.78371,101.38372 L 703.42039,-132.30682 z "
           style="fill:#ed8400;fill-opacity:1;fill-rule:evenodd;stroke:#000000;stroke-width:3.61567235;stroke-linecap:butt;stroke-linejoin:miter;stroke-miterlimit:4;stroke-dasharray:none;stroke-opacity:1" />
        <path
           id="path2524"
           d="M 595.68202,83.644563 L 702.49696,-131.08635"
           style="fill:#ed8400;fill-opacity:1;fill-rule:evenodd;stroke:#000000;stroke-width:3.61567235;stroke-linecap:butt;stroke-linejoin:miter;stroke-miterlimit:4;stroke-dasharray:none;stroke-opacity:1" />
      </g>
      <g
         id="g2526"
         transform="matrix(0.721066,-0.692866,0.692866,0.721066,-319.7152,478.9569)">
        <path
           id="path2528"
           d="M 703.42039,-132.30682 L 561.7677,-3.4286971 L 594.46158,82.721143 L 664.78371,101.38372 L 703.42039,-132.30682 z "
           style="fill:#ed8400;fill-opacity:1;fill-rule:evenodd;stroke:#000000;stroke-width:3.61567235;stroke-linecap:butt;stroke-linejoin:miter;stroke-miterlimit:4;stroke-dasharray:none;stroke-opacity:1" />
        <path
           id="path2530"
           d="M 595.68202,83.644563 L 702.49696,-131.08635"
           style="fill:#ed8400;fill-opacity:1;fill-rule:evenodd;stroke:#000000;stroke-width:3.61567235;stroke-linecap:butt;stroke-linejoin:miter;stroke-miterlimit:4;stroke-dasharray:none;stroke-opacity:1" />
      </g>
      <g
         id="g2532"
         transform="matrix(0.206068,-0.978537,0.978537,0.206068,-199.8211,876.1108)">
        <path
           id="path2534"
           d="M 703.42039,-132.30682 L 561.7677,-3.4286971 L 594.46158,82.721143 L 664.78371,101.38372 L 703.42039,-132.30682 z "
           style="fill:#ed8400;fill-opacity:1;fill-rule:evenodd;stroke:#000000;stroke-width:3.61567235;stroke-linecap:butt;stroke-linejoin:miter;stroke-miterlimit:4;stroke-dasharray:none;stroke-opacity:1" />
        <path
           id="path2536"
           d="M 595.68202,83.644563 L 702.49696,-131.08635"
           style="fill:#ed8400;fill-opacity:1;fill-rule:evenodd;stroke:#000000;stroke-width:3.61567235;stroke-linecap:butt;stroke-linejoin:miter;stroke-miterlimit:4;stroke-dasharray:none;stroke-opacity:1" />
      </g>
      <g
         id="g2538"
         transform="matrix(-0.127938,-0.991782,0.991782,-0.127938,-29.74262,1128.313)">
        <path
           id="path2540"
           d="M 703.42039,-132.30682 L 561.7677,-3.4286971 L 594.46158,82.721143 L 664.78371,101.38372 L 703.42039,-132.30682 z "
           style="fill:#ed8400;fill-opacity:1;fill-rule:evenodd;stroke:#000000;stroke-width:3.61567235;stroke-linecap:butt;stroke-linejoin:miter;stroke-miterlimit:4;stroke-dasharray:none;stroke-opacity:1" />
        <path
           id="path2542"
           d="M 595.68202,83.644563 L 702.49696,-131.08635"
           style="fill:#ed8400;fill-opacity:1;fill-rule:evenodd;stroke:#000000;stroke-width:3.61567235;stroke-linecap:butt;stroke-linejoin:miter;stroke-miterlimit:4;stroke-dasharray:none;stroke-opacity:1" />
      </g>
      <path
         sodipodi:type="arc"
         style="opacity:1;fill:#ed8400;fill-opacity:1;fill-rule:nonzero;stroke:#000000;stroke-width:6.25;stroke-linecap:round;stroke-linejoin:round;stroke-miterlimit:4;stroke-dasharray:none;stroke-dashoffset:0;stroke-opacity:1"
         id="path2544"
         sodipodi:cx="460"
         sodipodi:cy="500.93362"
         sodipodi:rx="600"
         sodipodi:ry="568.57141"
         d="M 1060 500.93362 A 600 568.57141 0 1 1  -140,500.93362 A 600 568.57141 0 1 1  1060 500.93362 z"
         transform="translate(-37.14286,-8.571429)" />
      <path
         style="opacity:1;fill:url(#linearGradient2900);fill-opacity:1;fill-rule:nonzero;stroke:none;stroke-width:6.25;stroke-linecap:round;stroke-linejoin:round;stroke-miterlimit:4;stroke-dasharray:none;stroke-dashoffset:0;stroke-opacity:1"
         d="M 426.28571,-70.486607 C 95.08571,-70.486607 -173.71429,184.2245 -173.71429,498.07589 C -173.71429,676.60101 -86.671366,835.90651 49.285714,940.16964 C -38.121856,841.38684 -90.870536,714.13398 -90.870536,575.23214 C -90.870526,261.38072 177.92946,6.6383929 509.12951,6.6383929 C 651.94481,6.6383929 783.09911,54.095773 886.16071,133.13839 C 776.06911,8.7180529 610.90711,-70.486608 426.28571,-70.486607 z "
         id="path2546" />
      <path
         sodipodi:type="arc"
         style="opacity:1;fill:url(#radialGradient2876);fill-opacity:1;fill-rule:nonzero;stroke:none;stroke-width:6.25;stroke-linecap:round;stroke-linejoin:round;stroke-miterlimit:4;stroke-dasharray:none;stroke-dashoffset:0;stroke-opacity:1"
         id="path2548"
         sodipodi:cx="460"
         sodipodi:cy="500.93362"
         sodipodi:rx="600"
         sodipodi:ry="568.57141"
         d="M 1060 500.93362 A 600 568.57141 0 1 1  -140,500.93362 A 600 568.57141 0 1 1  1060 500.93362 z"
         transform="translate(-42.28557,-14.57141)" />
      <g
         id="g2550">
        <path
           transform="matrix(0.926115,0,0,0.993009,-178.3969,-290.2422)"
           d="M 568.57143 496.64789 A 148.57143 138.57143 0 1 1  271.42857,496.64789 A 148.57143 138.57143 0 1 1  568.57143 496.64789 z"
           sodipodi:ry="138.57143"
           sodipodi:rx="148.57143"
           sodipodi:cy="496.64789"
           sodipodi:cx="420"
           id="path2552"
           style="opacity:0.69999994;fill:#ffffff;fill-opacity:1;fill-rule:nonzero;stroke:#868686;stroke-width:27.26065254;stroke-linecap:round;stroke-linejoin:round;stroke-miterlimit:4;stroke-dasharray:none;stroke-dashoffset:0;stroke-opacity:1"
           sodipodi:type="arc" />
        <path
           transform="matrix(0.926115,0,0,0.993009,-177.2568,-289.8073)"
           d="M 568.57143 496.64789 A 148.57143 138.57143 0 1 1  271.42857,496.64789 A 148.57143 138.57143 0 1 1  568.57143 496.64789 z"
           sodipodi:ry="138.57143"
           sodipodi:rx="148.57143"
           sodipodi:cy="496.64789"
           sodipodi:cx="420"
           id="path2554"
           style="opacity:0.69999994;fill:#ffffff;fill-opacity:1;fill-rule:nonzero;stroke:#3c34ff;stroke-width:5;stroke-linecap:round;stroke-linejoin:round;stroke-miterlimit:4;stroke-dasharray:none;stroke-dashoffset:0;stroke-opacity:0.18333327"
           sodipodi:type="arc" />
        <path
           id="path2556"
           d="M 206.99475,91.326346 C 148.93174,91.326346 101.80849,138.44602 101.80849,196.51261 C 101.80849,238.50613 126.52379,274.65911 162.12993,291.52186 C 143.75589,272.5796 132.38728,246.80244 132.38728,218.34778 C 132.38728,160.28119 179.51053,113.16152 237.57354,113.16152 C 253.63752,113.16152 268.81531,116.86651 282.43836,123.31463 C 263.31786,103.60942 236.59848,91.326346 206.99475,91.326346 z "
           style="opacity:0.69999994;fill:#868686;fill-opacity:1;fill-rule:nonzero;stroke:#3c34ff;stroke-width:3.82234859;stroke-linecap:round;stroke-linejoin:round;stroke-miterlimit:4;stroke-dasharray:none;stroke-dashoffset:0;stroke-opacity:0.18333327" />
        <path
           transform="matrix(0.189001,0,0,0.202653,126.3399,103.1432)"
           d="M 568.57143 496.64789 A 148.57143 138.57143 0 1 1  271.42857,496.64789 A 148.57143 138.57143 0 1 1  568.57143 496.64789 z"
           sodipodi:ry="138.57143"
           sodipodi:rx="148.57143"
           sodipodi:cy="496.64789"
           sodipodi:cx="420"
           id="path2558"
           style="opacity:1;fill:#000000;fill-opacity:1;fill-rule:nonzero;stroke:#3c34ff;stroke-width:5;stroke-linecap:round;stroke-linejoin:round;stroke-miterlimit:4;stroke-dasharray:none;stroke-dashoffset:0;stroke-opacity:0.18333327"
           sodipodi:type="arc" />
      </g>
      <g
         id="g2560"
         transform="translate(180.8572,0.857143)">
        <path
           transform="matrix(0.926115,0,0,0.993009,-178.3969,-290.2422)"
           d="M 568.57143 496.64789 A 148.57143 138.57143 0 1 1  271.42857,496.64789 A 148.57143 138.57143 0 1 1  568.57143 496.64789 z"
           sodipodi:ry="138.57143"
           sodipodi:rx="148.57143"
           sodipodi:cy="496.64789"
           sodipodi:cx="420"
           id="path2562"
           style="opacity:0.69999994;fill:#ffffff;fill-opacity:1;fill-rule:nonzero;stroke:#868686;stroke-width:27.26065254;stroke-linecap:round;stroke-linejoin:round;stroke-miterlimit:4;stroke-dasharray:none;stroke-dashoffset:0;stroke-opacity:1"
           sodipodi:type="arc" />
        <path
           transform="matrix(0.926115,0,0,0.993009,-177.2568,-289.8073)"
           d="M 568.57143 496.64789 A 148.57143 138.57143 0 1 1  271.42857,496.64789 A 148.57143 138.57143 0 1 1  568.57143 496.64789 z"
           sodipodi:ry="138.57143"
           sodipodi:rx="148.57143"
           sodipodi:cy="496.64789"
           sodipodi:cx="420"
           id="path2564"
           style="opacity:0.69999994;fill:#ffffff;fill-opacity:1;fill-rule:nonzero;stroke:#3c34ff;stroke-width:5;stroke-linecap:round;stroke-linejoin:round;stroke-miterlimit:4;stroke-dasharray:none;stroke-dashoffset:0;stroke-opacity:0.18333327"
           sodipodi:type="arc" />
        <path
           id="path2566"
           d="M 206.99475,91.326346 C 148.93174,91.326346 101.80849,138.44602 101.80849,196.51261 C 101.80849,238.50613 126.52379,274.65911 162.12993,291.52186 C 143.75589,272.5796 132.38728,246.80244 132.38728,218.34778 C 132.38728,160.28119 179.51053,113.16152 237.57354,113.16152 C 253.63752,113.16152 268.81531,116.86651 282.43836,123.31463 C 263.31786,103.60942 236.59848,91.326346 206.99475,91.326346 z "
           style="opacity:0.69999994;fill:#868686;fill-opacity:1;fill-rule:nonzero;stroke:#3c34ff;stroke-width:3.82234859;stroke-linecap:round;stroke-linejoin:round;stroke-miterlimit:4;stroke-dasharray:none;stroke-dashoffset:0;stroke-opacity:0.18333327" />
        <path
           transform="matrix(0.189001,0,0,0.202653,126.3399,103.1432)"
           d="M 568.57143 496.64789 A 148.57143 138.57143 0 1 1  271.42857,496.64789 A 148.57143 138.57143 0 1 1  568.57143 496.64789 z"
           sodipodi:ry="138.57143"
           sodipodi:rx="148.57143"
           sodipodi:cy="496.64789"
           sodipodi:cx="420"
           id="path2568"
           style="opacity:1;fill:#000000;fill-opacity:1;fill-rule:nonzero;stroke:#3c34ff;stroke-width:5;stroke-linecap:round;stroke-linejoin:round;stroke-miterlimit:4;stroke-dasharray:none;stroke-dashoffset:0;stroke-opacity:0.18333327"
           sodipodi:type="arc" />
      </g>
      <path
         sodipodi:type="arc"
         style="opacity:1;fill:#ed8400;fill-opacity:1;fill-rule:nonzero;stroke:#000000;stroke-width:6.25;stroke-linecap:round;stroke-linejoin:round;stroke-miterlimit:4;stroke-dasharray:none;stroke-dashoffset:0;stroke-opacity:1"
         id="path2570"
         sodipodi:cx="155.71428"
         sodipodi:cy="563.79077"
         sodipodi:rx="30"
         sodipodi:ry="31.428572"
         d="M 185.71428 563.79077 A 30 31.428572 0 1 1  125.71428,563.79077 A 30 31.428572 0 1 1  185.71428 563.79077 z" />
      <g
         id="g2572"
         transform="matrix(0.966092,0.258197,-0.258197,0.966092,17.45768,-163.8581)">
        <path
           id="path2574"
           d="M 703.42039,-132.30682 L 561.7677,-3.4286971 L 594.46158,82.721143 L 664.78371,101.38372 L 703.42039,-132.30682 z "
           style="fill:#ed8400;fill-opacity:1;fill-rule:evenodd;stroke:#000000;stroke-width:3.61567235;stroke-linecap:butt;stroke-linejoin:miter;stroke-miterlimit:4;stroke-dasharray:none;stroke-opacity:1" />
        <path
           id="path2576"
           d="M 595.68202,83.644563 L 702.49696,-131.08635"
           style="fill:#ed8400;fill-opacity:1;fill-rule:evenodd;stroke:#000000;stroke-width:3.61567235;stroke-linecap:butt;stroke-linejoin:miter;stroke-miterlimit:4;stroke-dasharray:none;stroke-opacity:1" />
      </g>
      <g
         id="g2578"
         transform="translate(-1325.715,-99.99999)">
        <path
           transform="matrix(1.372093,0,0,1.372093,1270.1,-111.2112)"
           d="M 185.71428 563.79077 A 30 31.428572 0 1 1  125.71428,563.79077 A 30 31.428572 0 1 1  185.71428 563.79077 z"
           sodipodi:ry="31.428572"
           sodipodi:rx="30"
           sodipodi:cy="563.79077"
           sodipodi:cx="155.71428"
           id="path2580"
           style="opacity:1;fill:#c20000;fill-opacity:1;fill-rule:nonzero;stroke:#000000;stroke-width:6.25;stroke-linecap:round;stroke-linejoin:round;stroke-miterlimit:4;stroke-dasharray:none;stroke-dashoffset:0;stroke-opacity:1"
           sodipodi:type="arc" />
        <path
           transform="matrix(0.793282,0,0,0.793282,1360.229,215.1171)"
           d="M 185.71428 563.79077 A 30 31.428572 0 1 1  125.71428,563.79077 A 30 31.428572 0 1 1  185.71428 563.79077 z"
           sodipodi:ry="31.428572"
           sodipodi:rx="30"
           sodipodi:cy="563.79077"
           sodipodi:cx="155.71428"
           id="path2582"
           style="opacity:1;fill:#ed8400;fill-opacity:1;fill-rule:nonzero;stroke:#000000;stroke-width:6.25;stroke-linecap:round;stroke-linejoin:round;stroke-miterlimit:4;stroke-dasharray:none;stroke-dashoffset:0;stroke-opacity:1"
           sodipodi:type="arc" />
      </g>
      <g
         id="g2584"
         transform="matrix(0.872709,0.488241,-0.488241,0.872709,358.7331,-107.6048)">
        <path
           id="path2586"
           d="M 703.42039,-132.30682 L 561.7677,-3.4286971 L 594.46158,82.721143 L 664.78371,101.38372 L 703.42039,-132.30682 z "
           style="fill:#ed8400;fill-opacity:1;fill-rule:evenodd;stroke:#000000;stroke-width:3.61567235;stroke-linecap:butt;stroke-linejoin:miter;stroke-miterlimit:4;stroke-dasharray:none;stroke-opacity:1" />
        <path
           id="path2588"
           d="M 595.68202,83.644563 L 702.49696,-131.08635"
           style="fill:#ed8400;fill-opacity:1;fill-rule:evenodd;stroke:#000000;stroke-width:3.61567235;stroke-linecap:butt;stroke-linejoin:miter;stroke-miterlimit:4;stroke-dasharray:none;stroke-opacity:1" />
      </g>
      <g
         id="g2590"
         transform="matrix(0.907004,0.421122,-0.421122,0.907004,216.5118,-139.0125)">
        <path
           id="path2592"
           d="M 703.42039,-132.30682 L 561.7677,-3.4286971 L 594.46158,82.721143 L 664.78371,101.38372 L 703.42039,-132.30682 z "
           style="fill:#ed8400;fill-opacity:1;fill-rule:evenodd;stroke:#000000;stroke-width:3.61567235;stroke-linecap:butt;stroke-linejoin:miter;stroke-miterlimit:4;stroke-dasharray:none;stroke-opacity:1" />
        <path
           id="path2594"
           d="M 595.68202,83.644563 L 702.49696,-131.08635"
           style="fill:#ed8400;fill-opacity:1;fill-rule:evenodd;stroke:#000000;stroke-width:3.61567235;stroke-linecap:butt;stroke-linejoin:miter;stroke-miterlimit:4;stroke-dasharray:none;stroke-opacity:1" />
      </g>
      <g
         id="g2596"
         transform="matrix(0.819532,0.573033,-0.573033,0.819532,251.7008,-11.4229)">
        <path
           id="path2598"
           d="M 703.42039,-132.30682 L 561.7677,-3.4286971 L 594.46158,82.721143 L 664.78371,101.38372 L 703.42039,-132.30682 z "
           style="fill:#ed8400;fill-opacity:1;fill-rule:evenodd;stroke:#000000;stroke-width:3.61567235;stroke-linecap:butt;stroke-linejoin:miter;stroke-miterlimit:4;stroke-dasharray:none;stroke-opacity:1" />
        <path
           id="path2600"
           d="M 595.68202,83.644563 L 702.49696,-131.08635"
           style="fill:#ed8400;fill-opacity:1;fill-rule:evenodd;stroke:#000000;stroke-width:3.61567235;stroke-linecap:butt;stroke-linejoin:miter;stroke-miterlimit:4;stroke-dasharray:none;stroke-opacity:1" />
      </g>
      <g
         id="g2602"
         transform="matrix(0.793838,0.608129,-0.608129,0.793838,296.4912,175.0431)">
        <path
           id="path2604"
           d="M 703.42039,-132.30682 L 561.7677,-3.4286971 L 594.46158,82.721143 L 664.78371,101.38372 L 703.42039,-132.30682 z "
           style="fill:#ed8400;fill-opacity:1;fill-rule:evenodd;stroke:#000000;stroke-width:3.61567235;stroke-linecap:butt;stroke-linejoin:miter;stroke-miterlimit:4;stroke-dasharray:none;stroke-opacity:1" />
        <path
           id="path2606"
           d="M 595.68202,83.644563 L 702.49696,-131.08635"
           style="fill:#ed8400;fill-opacity:1;fill-rule:evenodd;stroke:#000000;stroke-width:3.61567235;stroke-linecap:butt;stroke-linejoin:miter;stroke-miterlimit:4;stroke-dasharray:none;stroke-opacity:1" />
      </g>
      <g
         id="g2608"
         transform="matrix(2.626713e-2,-0.60334,0.310865,1.3534e-2,263.0939,489.7913)">
        <path
           sodipodi:nodetypes="czzzzzzzzzc"
           id="path2610"
           d="M -241.55798,1378.0995 C -241.55798,1378.0995 -322.5348,1721.9079 -318.41734,1828.2757 C -314.29987,1934.6436 -271.75273,1815.9233 -225.08812,1803.5709 C -178.42351,1791.2185 -183.17608,1766.5051 -136.51147,1754.1527 C -89.846861,1741.8003 -85.09429,1766.5137 -38.42968,1754.1613 C 8.23493,1741.8089 1.5624861,1719.2577 48.227096,1706.9053 C 94.891706,1694.5529 101.56415,1717.1041 148.22876,1704.7517 C 194.89337,1692.3993 187.28926,1667.6859 233.95387,1655.3335 C 280.61848,1642.9811 288.22259,1667.6945 334.8872,1655.3421 C 381.55181,1642.9897 495.46836,1716.4178 428.21642,1630.6373 C 360.96448,1544.8568 65.879449,1312.22 65.879449,1312.22"
           style="fill:#ff9d00;fill-opacity:1;fill-rule:evenodd;stroke:#000000;stroke-width:6.4000001;stroke-linecap:butt;stroke-linejoin:miter;stroke-miterlimit:4;stroke-dasharray:none;stroke-opacity:1" />
        <path
           sodipodi:nodetypes="ccczc"
           id="path2612"
           d="M -142.76248,1357.3471 L -213.72317,1372.1939 C -213.72317,1372.1939 -204.9005,1695.0692 -201.17174,1793.7758 C -190.64922,1789.0137 -170.09503,1765.2164 -142.53715,1755.4026 C -114.97926,1745.5888 -85.863122,1750.7486 -62.672058,1757.3668"
           style="opacity:0.4;fill:url(#linearGradient9972);fill-opacity:1;fill-rule:evenodd;stroke:none;stroke-width:1px;stroke-linecap:butt;stroke-linejoin:miter;stroke-opacity:1" />
        <path
           sodipodi:nodetypes="ccczc"
           id="path2614"
           d="M -6.5959582,1327.9535 L -69.521354,1341.1766 C -69.521354,1341.1766 -32.728812,1649.8205 -20.749307,1747.8682 C -10.662423,1742.242 17.763205,1723.8352 37.374857,1709.5676 C 56.828382,1695.4151 90.552198,1703.3356 114.21592,1707.989"
           style="opacity:0.4;fill:url(#linearGradient9974);fill-opacity:1;fill-rule:evenodd;stroke:none;stroke-width:1px;stroke-linecap:butt;stroke-linejoin:miter;stroke-opacity:1" />
        <path
           sodipodi:nodetypes="ccczc"
           id="path2616"
           d="M 112.75598,1348.9697 L 66.128265,1312.6352 C 66.128265,1312.6352 147.10793,1604.6995 172.69884,1700.1038 C 183.94991,1695.6546 201.54463,1680.848 227.50927,1670.9972 C 253.86306,1660.9987 275.54811,1632.5062 299.6303,1633.8001"
           style="opacity:0.4;fill:url(#linearGradient9976);fill-opacity:1;fill-rule:evenodd;stroke:none;stroke-width:1px;stroke-linecap:butt;stroke-linejoin:miter;stroke-opacity:1" />
      </g>
      <g
         id="g2618"
         transform="matrix(0.591008,0.806666,-0.806666,0.591008,596.2664,85.06293)">
        <path
           id="path2620"
           d="M 703.42039,-132.30682 L 561.7677,-3.4286971 L 594.46158,82.721143 L 664.78371,101.38372 L 703.42039,-132.30682 z "
           style="fill:#ed8400;fill-opacity:1;fill-rule:evenodd;stroke:#000000;stroke-width:3.61567235;stroke-linecap:butt;stroke-linejoin:miter;stroke-miterlimit:4;stroke-dasharray:none;stroke-opacity:1" />
        <path
           id="path2622"
           d="M 595.68202,83.644563 L 702.49696,-131.08635"
           style="fill:#ed8400;fill-opacity:1;fill-rule:evenodd;stroke:#000000;stroke-width:3.61567235;stroke-linecap:butt;stroke-linejoin:miter;stroke-miterlimit:4;stroke-dasharray:none;stroke-opacity:1" />
      </g>
      <g
         id="g2624"
         transform="translate(327.406,364.9666)">
        <g
           id="g2626"
           transform="matrix(0.706512,0.707701,-0.707701,0.706512,185.6446,-428.5477)">
          <path
             style="fill:#ed8400;fill-opacity:1;fill-rule:evenodd;stroke:#000000;stroke-width:3.61567235;stroke-linecap:butt;stroke-linejoin:miter;stroke-miterlimit:4;stroke-dasharray:none;stroke-opacity:1"
             d="M 703.42039,-132.30682 L 561.7677,-3.4286971 L 594.46158,82.721143 L 664.78371,101.38372 L 703.42039,-132.30682 z "
             id="path2628" />
          <path
             style="fill:#ed8400;fill-opacity:1;fill-rule:evenodd;stroke:#000000;stroke-width:3.61567235;stroke-linecap:butt;stroke-linejoin:miter;stroke-miterlimit:4;stroke-dasharray:none;stroke-opacity:1"
             d="M 595.68202,83.644563 L 702.49696,-131.08635"
             id="path2630" />
        </g>
      </g>
      <g
         id="g2632"
         transform="matrix(-0.159535,0.987192,-0.987192,-0.159535,829.9327,310.3255)">
        <path
           id="path2634"
           d="M 703.42039,-132.30682 L 561.7677,-3.4286971 L 594.46158,82.721143 L 664.78371,101.38372 L 703.42039,-132.30682 z "
           style="fill:#ed8400;fill-opacity:1;fill-rule:evenodd;stroke:#000000;stroke-width:3.61567235;stroke-linecap:butt;stroke-linejoin:miter;stroke-miterlimit:4;stroke-dasharray:none;stroke-opacity:1" />
        <path
           id="path2636"
           d="M 595.68202,83.644563 L 702.49696,-131.08635"
           style="fill:#ed8400;fill-opacity:1;fill-rule:evenodd;stroke:#000000;stroke-width:3.61567235;stroke-linecap:butt;stroke-linejoin:miter;stroke-miterlimit:4;stroke-dasharray:none;stroke-opacity:1" />
      </g>
      <g
         id="g2638"
         transform="matrix(4.564402e-2,0.998958,-0.998958,4.564402e-2,843.6471,231.4495)">
        <path
           id="path2640"
           d="M 703.42039,-132.30682 L 561.7677,-3.4286971 L 594.46158,82.721143 L 664.78371,101.38372 L 703.42039,-132.30682 z "
           style="fill:#ed8400;fill-opacity:1;fill-rule:evenodd;stroke:#000000;stroke-width:3.61567235;stroke-linecap:butt;stroke-linejoin:miter;stroke-miterlimit:4;stroke-dasharray:none;stroke-opacity:1" />
        <path
           id="path2642"
           d="M 595.68202,83.644563 L 702.49696,-131.08635"
           style="fill:#ed8400;fill-opacity:1;fill-rule:evenodd;stroke:#000000;stroke-width:3.61567235;stroke-linecap:butt;stroke-linejoin:miter;stroke-miterlimit:4;stroke-dasharray:none;stroke-opacity:1" />
      </g>
      <g
         id="g2644"
         transform="matrix(0.265389,0.964142,-0.964142,0.265389,622.9052,159.9157)">
        <path
           id="path2646"
           d="M 703.42039,-132.30682 L 561.7677,-3.4286971 L 594.46158,82.721143 L 664.78371,101.38372 L 703.42039,-132.30682 z "
           style="fill:#ed8400;fill-opacity:1;fill-rule:evenodd;stroke:#000000;stroke-width:3.61567235;stroke-linecap:butt;stroke-linejoin:miter;stroke-miterlimit:4;stroke-dasharray:none;stroke-opacity:1" />
        <path
           id="path2648"
           d="M 595.68202,83.644563 L 702.49696,-131.08635"
           style="fill:#ed8400;fill-opacity:1;fill-rule:evenodd;stroke:#000000;stroke-width:3.61567235;stroke-linecap:butt;stroke-linejoin:miter;stroke-miterlimit:4;stroke-dasharray:none;stroke-opacity:1" />
      </g>
      <g
         id="g2650"
         transform="matrix(0.2514461,-0.5962877,0.5962877,0.2514461,-236.78616,586.75136)">
        <path
           id="path2652"
           d="M 703.42039,-132.30682 L 561.7677,-3.4286971 L 594.46158,82.721143 L 664.78371,101.38372 L 703.42039,-132.30682 z "
           style="fill:#ed8400;fill-opacity:1;fill-rule:evenodd;stroke:#000000;stroke-width:3.61567235;stroke-linecap:butt;stroke-linejoin:miter;stroke-miterlimit:4;stroke-dasharray:none;stroke-opacity:1" />
        <path
           id="path2654"
           d="M 595.68202,83.644563 L 702.49696,-131.08635"
           style="fill:#ed8400;fill-opacity:1;fill-rule:evenodd;stroke:#000000;stroke-width:3.61567235;stroke-linecap:butt;stroke-linejoin:miter;stroke-miterlimit:4;stroke-dasharray:none;stroke-opacity:1" />
      </g>
      <g
         id="g2656"
         transform="matrix(0.5020508,-0.4083248,0.4083248,0.5020508,-32.307876,208.34028)">
        <path
           id="path2658"
           d="M 703.42039,-132.30682 L 561.7677,-3.4286971 L 594.46158,82.721143 L 664.78371,101.38372 L 703.42039,-132.30682 z "
           style="fill:#ed8400;fill-opacity:1;fill-rule:evenodd;stroke:#000000;stroke-width:3.61567235;stroke-linecap:butt;stroke-linejoin:miter;stroke-miterlimit:4;stroke-dasharray:none;stroke-opacity:1" />
        <path
           id="path2660"
           d="M 595.68202,83.644563 L 702.49696,-131.08635"
           style="fill:#ed8400;fill-opacity:1;fill-rule:evenodd;stroke:#000000;stroke-width:3.61567235;stroke-linecap:butt;stroke-linejoin:miter;stroke-miterlimit:4;stroke-dasharray:none;stroke-opacity:1" />
      </g>
    </g>
  </g>
</svg>
