<?xml version="1.0" encoding="utf8" standalone="no"?>
<svg viewBox="0 0 618.48993 1117.9982" xmlns="http://www.w3.org/2000/svg">
<defs>
<filter id="filter6633">
<feGaussianBlur stdDeviation="2.61738"/>
</filter>
<filter id="filter6871">
<feGaussianBlur stdDeviation="1.71467"/>
</filter>
<filter id="filter6900">
<feGaussianBlur stdDeviation="3.56745"/>
</filter>
<filter height="1.49906" id="filter6728" width="1.21754" x="-.10877" y="-.24953">
<feGaussianBlur stdDeviation="2.43032"/>
</filter>
<filter height="1.73445" id="filter6732" width="1.20693" x="-.10346" y="-.36722">
<feGaussianBlur stdDeviation="2.43032"/>
</filter>
<filter height="1.94143" id="filter6736" width="1.17139" x="-.0857" y="-.47071">
<feGaussianBlur stdDeviation="2.43032"/>
</filter>
<filter height="1.9753" id="filter6740" width="1.19282" x="-.09641" y="-.48765">
<feGaussianBlur stdDeviation="2.43032"/>
</filter>
<filter height="2.51081" id="filter6744" width="1.21479" x="-.10739" y="-.7554">
<feGaussianBlur stdDeviation="2.43032"/>
</filter>
<filter height="2.29938" id="filter6772" width="1.16396" x="-.08198" y="-.64969">
<feGaussianBlur stdDeviation="2.40806"/>
</filter>
<filter height="2.13944" id="filter6776" width="1.17262" x="-.08631" y="-.56972">
<feGaussianBlur stdDeviation="2.40806"/>
</filter>
<filter height="2.43449" id="filter6780" width="1.22056" x="-.11028" y="-.71725">
<feGaussianBlur stdDeviation="2.40806"/>
</filter>
<filter height="1.91975" id="filter6784" width="1.20533" x="-.10266" y="-.45988">
<feGaussianBlur stdDeviation="2.40806"/>
</filter>
<filter height="2.3299" id="filter6822" width="1.13944" x="-.06972" y="-.66495">
<feGaussianBlur stdDeviation="2.03711"/>
</filter>
<filter height="2.41993" id="filter6826" width="1.18471" x="-.09236" y="-.70997">
<feGaussianBlur stdDeviation="2.03711"/>
</filter>
<filter height="2.08529" id="filter6830" width="1.20032" x="-.10016" y="-.54264">
<feGaussianBlur stdDeviation="2.03711"/>
</filter>
<filter height="2.20652" id="filter6834" width="1.15803" x="-.07901" y="-.60326">
<feGaussianBlur stdDeviation="2.03711"/>
</filter>
<filter height="1.27535" id="filter6922" width="1.34091" x="-.17045" y="-.13768">
<feGaussianBlur stdDeviation="1.4505"/>
</filter>
<radialGradient cx="344.35373" cy="648.50897" gradientTransform="matrix(.99347,-.30968,.62024,1.98976,-453.86167,-605.76614)" gradientUnits="userSpaceOnUse" id="radialGradient6270" r="290.47287">
<stop offset="0" stop-color="#fff"/>
<stop offset="1" stop-color="#50adcb"/>
</radialGradient>
</defs>
<path d="m3.65,268.83092c27.14249,21.60831 23.41327,29.82669 18.63998,42.77996 57.35494-31.59143 119.51165-78.49036 178.56439-81.21924 54.05224.8973 99.14539,25.08827 178.89801-40.83542 15.72342-65.2948-7.46398-84.26721-29.16815-105.00536 21.30307-20.72854 44.60488-15.25167 76.62242-10.97976 4.66231,2.9845 21.09594,20.34082 3.10387,16.81339 8.07508,4.28652 21.70314,10.94787 0,15.55635 22.36934-2.22044 23.48763,10.58587 8.34772,14.7509 9.64011,4.45485 33.43877,5.37006 9.15317,18.30634 10.68052,5.92347 20.84779,12.10931-.6875,14.41727 8.34448,5.18545 21.90032,10.3709 4.00705,15.55635 13.15501,3.04427 23.46937,8.92499 6.40317,12.80634 9.17621,6.57643 7.27747,10.69176 0,13.61181-20.7418,6.17183-41.4836,9.97795-62.2254-1.94454-14.41256-4.59072-19.80574,1.64181-25.27906,7.77817-37.40681,30.76312-46.05627,62.43602-57.19723,80.98333-11.1192,19.6746-20.63334,39.34921-24.47361,59.02381-8.0805,19.90352-21.52186,38.73486-21.38998,60.28086-6.44141,15.68809-6.63314,26.68892-5.83363,36.94633-13.27443,33.86083.76108,54.06669 3.88909,79.72629 2.29414,19.83388-9.3118,24.22322 23.33452,77.78174-4.5317,37.98119 31.58161,59.70438 62.2254,83.61538 17.58483,10.95194 35.64919,21.52024 62.2254,25.27907 7.56278,6.26542 9.43809,15.37456 9.72271,25.27906-4.53161,18.14908-2.65542,36.29815 1.94455,54.44723-4.05844,5.66428-12.00821,7.43722-5.83363,23.33452-5.89862,10.79219-7.04133,22.37703-1.94455,35.00179-11.1317.24442-11.24011,18.86099-11.66726,36.94632-16.6847,4.07511-9.92672,22.80191-13.6118,35.00179-9.48337,6.12951-9.11769,15.54201-7.77818,25.27911-21.36804,5.3916-17.17161,18.6493-15.55635,31.1127-19.18956,1.9431-17.94562,12.4002-15.55635,23.3345-12.36026-1.4619-15.69569,4.2962-9.72272,17.50089-7.82556-8.6159-13.22899-7.5433-15.55634,5.8336-6.48181-1.0739-12.96363-8.621-19.44544,1.9445-9.53053-7.081-17.56339-3.6783-25.27907,1.9446-8.9397-5.8076-16.19476-3.1921-23.33452,0-26.01887,1.3238-30.22959-3.8948-38.89088-7.7782-27.89546-18.96129-22.88229-35.18019-31.11269-52.50269-5.95336-26.2005 1.62404-36.1642 3.88908-52.50264 12.74913-22.67693 26.38694-40.02179 42.77996-40.83542 27.90354-14.18219 35.22087-2.08761 42.77996,1.94455 27.88361,15.42908 25.35857,24.77642 36.94633,36.94633 14.88645,8.39278 6.22271-19.61017 1.94455-40.83542-3.57069-12.89767-16.7252-23.87858-29.16816-35.00179-42.83655-16.04034-50.55593.11006-73.89266,1.94455-49.46154,23.76584-50.7805,47.71327-57.43313,60.39881-4.80979,16.7408-14.37656,41.95483-13.94544,62.22543-4.3861,29.4131 5.00444,55.76479 16.93135,81.55279 19.44169,32.1999 45.5206,51.2003 75.95516,63.2466 41.57732,24.7783 75.00402,7.4805 85.44196,4.8125 34.27315-2.177 46.94177-23.258 68.05903-36.9464 21.21127,6.3329 17.28284-8.284 17.5009-19.4454 19.00143-4.1869 18.16648-13.7838 17.50089-23.3345 7.80313-4.5123 21.43536-3.1956 17.50089-19.4455 13.94147-1.4355 14.03358-15.18139 11.66726-31.11269 13.43639-5.4989 20.54392-14.5139 17.5009-29.1681 17.28812-10.1285 15.88191-16.7517 3.88908-21.39 9.63101-5.03053 20.00938-9.56281 13.61181-25.27906 14.524-13.14606 15.36754-23.55603 11.66726-33.05724 3.41526-10.17867 13.96375-16.28121 5.83363-33.05724 14.17857-7.74234 13.73603-21.98295 11.66726-36.94633 8.69543-7.79389 9.96414-17.70971 5.83363-29.16816 12.97208-14.07237 8.51323-33.12502 9.72272-50.55813 8.58681-15.13921-.81451-25.13895-3.88909-36.94633 11.60192-5.04791 10.65426-14.80191 7.77818-25.27907-15.1162-10.64599-14.59657-31.06437-15.55635-50.55813 6.40162-27.19153 12.31338-54.18713 9.72272-77.78175 3.94894-9.72272 7.44652-19.44543 7.77817-29.16815-3.83345-12.31544.89476-24.63089 1.94455-36.94633 6.83141-10.96807 12.49968-24.26241 17.50089-38.89088 4.10078-5.89786 13.54603-8.74173 5.83363-21.38998 11.3255-9.49762 14.77766-19.78257 7.77818-31.11269 8.91639-20.87456 1.33648-28.55207-7.77818-35.00179 6.11761-13.29039 23.16691-25.852 3.88909-40.83542 3.8218-15.22745 17.92395-31.18921-1.94455-44.7245 6.39665-9.05751 11.60571-17.8775 0-23.33453 9.96377-9.11471 6.16998-15.9365-5.83363-21.38998-.76034-10.5274 15.13283-19.20441-15.55635-33.05724 6.86775-18.96266-2.63731-30.90839-21.38998-38.89087 6.38766-13.28073 13.60652-26.75937-17.50089-31.1127 10.51517-15.53247-.74225-18.36428-11.66726-21.38998 8.58031-9.49889 5.1742-17.49948-15.55635-23.33452-.64663-9.72349 3.98384-22.08554-17.50089-21.38998-9.72272-14.2365-19.44544-24.17008-29.16816-5.83363-8.22881-14.63041-17.16369-18.66982-27.22361-5.83363-7.93288-20.65368-13.15568-8.78651-19.44544-9.72272-8.66354-15.07174-12.29461-8.33611-15.55634,0-13.63645-7.06556-14.40804.57158-15.55635,7.77817-7.63451-5.95504-15.2377-11.79522-17.5009,1.94455-10.35172-3.5838-21.80901-9.82096-23.33452,7.77817-9.09661-10.05705-15.58669-11.25187-15.55635,9.72272-10.95934-1.1968-21.65683-1.95718-27.22361,5.83363-32.1644,17.21297-14.63091,38.17833-40.83542,60.28085-7.41382,4.45675-11.69551,2.64924-13.6118-3.88908-.46295-11.15143 7.95387-37.52531-3.88909-29.16816-4.53727,1.11755-9.07454,7.44943-13.61181,21.38998-11.38189,24.34551-8.41966,34.34692-11.66726,50.55814 1.34119,13.7773-5.97588,20.628-13.6118,27.22361-46.42988,29.56633-60.01746,50.48994-169.98076,96.77559z" fill="url(#radialGradient6270)" stroke="#154e73" stroke-linecap="round" stroke-linejoin="round" stroke-width="7.3"/>
<path d="m538.64973,502.79456c.21702-28.29612 48.50558-9.6195 65.64859-14.46612 13.57086,1.43889 7.09366,13.8131 1.02113,25.96657 7.62051,7.72966 13.82697,15.02423-1.94455,15.55635 10.67659,15.30094 16.26718,28.50764-3.88908,31.1127 19.70462,13.33091 19.08737,23.27484 5.83363,31.11269-1.48834,6.41831 20.09195,20.27736-7.77818,17.5009 5.99021,11.77165 16.74023,23.04983-3.77113,26.32043 18.45297,28.01701 6.19419,25.28465-7.89613,26.18225-22.80282-.76682-38.64196-5.51288-48.61359-13.61181-34.17372-11.63636-5.89596-122.50882 1.38931-145.67396z" fill="#3c8ca7" stroke="#154e73" stroke-linecap="round" stroke-linejoin="round" stroke-width="7.3"/>
<g filter="url(#filter6900)" stroke="#154e73" stroke-linecap="round" stroke-linejoin="round" stroke-width="8" transform="translate(-53.88085,-79.78019)">
<path d="m509.47044,174.05377c32.74869,40.39294 58.75418,85.28134 64.16994,143.89623-1.17411,33.31405-.0296,67.40097-11.66727,97.22718 2.25508,20.3333 7.78231,41.48463-3.88908,58.33631-.6335,28.20812-7.82139,50.95425-19.44544,70.00357 .24875,31.26159-6.70807,53.51622-13.6118,75.83721 2.43581,24.91575 8.16612,50.65512 3.88908,73.89265" fill="none" stroke="#154e73" stroke-linecap="round" stroke-linejoin="round" stroke-width="8"/>
<path d="m406.40962,312.11637c3.73294,11.52609 12.46816,16.38247 21.60566,20.70248 32.50004,35.08146 60.29073,14.6131 85.55992,9.72272 23.37429.26909 45.65637-10.31394 58.12063-24.59157 24.72741,3.58261 36.18457-3.1863 44.96042-8.46567" fill="none" stroke="#154e73" stroke-linecap="round" stroke-linejoin="round" stroke-width="8"/>
<path d="m449.18958,284.89276c-10.33501,12.33339-19.91538,25.04409-19.44543,42.77996-19.91146,18.58217-36.67366,38.61785-33.05725,68.05903-26.37544,23.22143-23.51286,42.54446-23.33452,62.22539-7.88288,21.88994-15.6966,43.76102-3.88909,60.28086-6.98092,32.68058-5.62995,64.43539 3.88909,95.28264 4.90071,24.50366-8.46562,39.11267 36.94633,85.55992" fill="none" stroke="#154e73" stroke-linecap="round" stroke-linejoin="round" stroke-width="8"/>
<path d="m367.51875,378.23085c9.62811,8.43341 18.05838,21.05925 31.1127,17.5009 23.76076,21.48751 52.50371,21.38549 81.67083,19.44543 27.07386,16.05628 54.99295,25.63242 87.50447,0 25.59348,3.63876 38.61915-6.10146 50.10654-13.04226" fill="none" stroke="#154e73" stroke-linecap="round" stroke-linejoin="round" stroke-width="8"/>
<path d="m341.43423,429.12262c5.19753,12.50309 13.23131,22.21606 31.11269,29.16815 34.76115,20.27385 60.29748,13.5446 82.47629-.33363 27.54206,35.03564 60.52597,37.42019 97.22719,17.5009 28.55091,8.6638 59.91604-.12357 66.94018-12.94455" fill="none" stroke="#154e73" stroke-linecap="round" stroke-linejoin="round" stroke-width="8"/>
<path d="m320.8497,514.34891c7.82553,19.54045 22.48216,24.73558 48.61359,5.83363 16.86502,31.26273 44.33177,32.2348 73.89266,27.22361 39.23069,11.15332 66.6592,2.63633 95.28264-3.88909 17.31105,9.07586 34.62209,11.63022 51.93314,4.22272" fill="none" stroke="#154e73" stroke-linecap="round" stroke-linejoin="round" stroke-width="8"/>
<path d="m318.90516,596.01974c16.28025,15.80055 28.27516,40.70746 58.33631,27.22361 23.40952,10.45929 43.73124,4.96691 63.48244-4.69454 31.68044,14.27873 61.49368,12.82371 91.39355,5.83363 10.79284,7.75165 27.88103,6.4145 55.13472-20.58452" fill="none" stroke="#154e73" stroke-linecap="round" stroke-linejoin="round" stroke-width="8"/>
<path d="m347.48353,684.42738c17.73232,6.80546 46.61691,26.36426 60.87064,8.81954 30.17225,18.28579 44.19424,8.30863 60.28085,1.94455 33.89004,16.93471 43.71233,2.88055 61.87153-2.86796 19.07012,13.714 34.74407,5.88541 47.02291.92341" fill="none" stroke="#154e73" stroke-linecap="round" stroke-linejoin="round" stroke-width="8"/>
<path d="m496.52589,279.49048c11.38263,19.02739 17.99364,39.11515 12.94455,61.79404-12.42289,24.199-25.61141,48.09175-29.16816,75.83721-6.93612,12.28998-8.21935,20.05765-23.33452,38.89087-8.97113,26.95324-22.66298,42.57678-23.33453,89.44901 2.51142,21.73257-11.96841,31.70197 11.66727,68.05903 5.98591,26.57543 5.6817,53.15085 23.33452,79.72628-4.10731,33.59394 17.57756,48.7649 38.43929,64.52381" fill="none" stroke="#154e73" stroke-linecap="round" stroke-linejoin="round" stroke-width="8"/>
<path d="m402.14643,753.38958c42.03752,10.23614 75.31103,16.12028 101.02679,1.40954 39.09385,5.50714 63.61742,1.87181 73.55079-13.05656" fill="none" stroke="#154e73" stroke-linecap="round" stroke-linejoin="round" stroke-width="8"/>
<path d="m478.35774,806.03046c26.87106,12.21143 58.40717,27.1545 102.84514-.92342" fill="none" stroke="#154e73" stroke-linecap="round" stroke-linejoin="round" stroke-width="8"/>
<path d="m482.24683,868.25585c22.59333,14.4305 46.29919,26.82137 79.72628,21.38998" fill="none" stroke="#154e73" stroke-linecap="round" stroke-linejoin="round" stroke-width="8"/>
<path d="m472.28819,930.93284c16.74235,15.66872 40.74246,28.95695 70.23949,20.93839" fill="none" stroke="#154e73" stroke-linecap="round" stroke-linejoin="round" stroke-width="8"/>
<path d="m450.78026,987.08869c16.96275,13.30921 40.37843,33.45091 64.52381,27.00791" fill="none" stroke="#154e73" stroke-linecap="round" stroke-linejoin="round" stroke-width="8"/>
<path d="m433.63323,1056.8766c4.88687,21.6222 30.18247,27.3709 50.55814,36.9463" fill="none" stroke="#154e73" stroke-linecap="round" stroke-linejoin="round" stroke-width="8"/>
<path d="m396.6869,1097.712c-.47861,28.3692 17.77179,40.0905 33.05725,54.4472" fill="none" stroke="#154e73" stroke-linecap="round" stroke-linejoin="round" stroke-width="8"/>
<path d="m363.62966,1103.5456c-7.94948,28.8021-7.77613,56.5212 11.66726,81.6709" fill="none" stroke="#154e73" stroke-linecap="round" stroke-linejoin="round" stroke-width="8"/>
<path d="m316.96061,1107.4347c-19.97878,16.9101-27.56853,40.0148-33.05724,64.17" fill="none" stroke="#154e73" stroke-linecap="round" stroke-linejoin="round" stroke-width="8"/>
<path d="m276.1252,1097.712c-26.70726-3.5595-46.4044,4.8983-60.28085,23.3345" fill="none" stroke="#154e73" stroke-linecap="round" stroke-linejoin="round" stroke-width="8"/>
<path d="m245.0125,1041.3202c-13.4789-3.2246-31.49663-14.7058-41.64087-1.257" fill="none" stroke="#154e73" stroke-linecap="round" stroke-linejoin="round" stroke-width="8"/>
<path d="m243.06796,992.25506c-1.05656-19.0299-10.39376-23.86441-24.25794-20.93839" fill="none" stroke="#154e73" stroke-linecap="round" stroke-linejoin="round" stroke-width="8"/>
<path d="m289.737,947.98214c-2.37872-12.40779-9.39303-22.96134-20.93839-31.70248" fill="none" stroke="#154e73" stroke-linecap="round" stroke-linejoin="round" stroke-width="8"/>
<path d="m336.40605,953.81577c7.37282-9.66365 6.04877-23.67575 2.51409-38.79315" fill="none" stroke="#154e73" stroke-linecap="round" stroke-linejoin="round" stroke-width="8"/>
</g>
<g filter="url(#filter6633)" stroke="#154e73" stroke-linecap="round" stroke-linejoin="round" stroke-width="2.9" transform="translate(-53.88085,-79.78019)">
<path d="m596.9749,603.79792c17.01998-.39722 35.17365-16.66598 50.55814,5.83363" fill="none" stroke="#154e73" stroke-linecap="round" stroke-linejoin="round" stroke-width="2.9"/>
<path d="m589.19673,636.85516c19.03928-4.54564 37.57037-13.15675 58.33631-3.88909" fill="none" stroke="#154e73" stroke-linecap="round" stroke-linejoin="round" stroke-width="2.9"/>
<path d="m587.25218,658.24514c28.95914,1.19773 49.9715,9.20698 66.11449,21.38998" fill="none" stroke="#154e73" stroke-linecap="round" stroke-linejoin="round" stroke-width="2.9"/>
<path d="m584.73809,698.72669c15.18166-8.46112 67.58526,2.24239 62.2254,8.36795" fill="none" stroke="#154e73" stroke-linecap="round" stroke-linejoin="round" stroke-width="2.9"/>
</g>
<path d="m239.1757,120.57378c22.12652,8.15873 15.57169,20.55955 18.07043,33.98065-4.23248,19.08801-13.71827,22.83872-29.16815,21.38998-21.5678-5.12994-17.13869-15.62986-19.68135-31.11269 7.03379-23.09205 20.27735-27.63189 30.77907-24.25794z" fill="#2d6a7e" filter="url(#filter6871)"/>
<path d="m544.93165,507.34481c17.29986-8.15543 35.18487-11.04451 54.3125-2.75" fill="none" filter="url(#filter6744)" stroke="#154e73" stroke-linecap="round" stroke-linejoin="round" stroke-width="2.9"/>
<path d="m538.05665,541.03231c20.16667-10.70632 40.33333-16.27275 60.5,2.0625" fill="none" filter="url(#filter6740)" stroke="#154e73" stroke-linecap="round" stroke-linejoin="round" stroke-width="2.9"/>
<path d="m533.93165,568.53231c23.28341-3.34663 46.56837-6.71037 68.0625,9.625" fill="none" filter="url(#filter6736)" stroke="#154e73" stroke-linecap="round" stroke-linejoin="round" stroke-width="2.9"/>
<path d="m531.86915,597.40731c21.36543-.58281 47.40338,2.23142 56.375,15.8125" fill="none" filter="url(#filter6732)" stroke="#154e73" stroke-linecap="round" stroke-linejoin="round" stroke-width="2.9"/>
<path d="m533.24415,630.40731c22.34931,4.31165 47.11084,6.74713 53.625,23.375" fill="none" filter="url(#filter6728)" stroke="#154e73" stroke-linecap="round" stroke-linejoin="round" stroke-width="2.9"/>
<path d="m387.03006,72.20307c-11.61992.25851-23.80091,4.09774-32.22657,12.16016 6.08811,7.77705 14.10589,14.27587 19.57227,22.62304 8.50679,12.01307 13.25219,26.93582 12.29815,41.83006 .51803,12.96809-.87993,25.91962-3.66143,38.50002 .83416,3.52818 5.71218,1.2908 8.16406,2.68555 8.73107,1.90872 16.41379,7.35329 25.54492,8.03515 13.24884,2.11224 26.67131-1.25728 39.29493-5.02734 2.31006-.56197 7.01742-2.56348 3.99609-5.37109-1.10996-2.16679-5.35248-3.64402-4.61914-6.38086 1.23517-2.902 6.43765-1.82283 6.48828-5.26367-3.13382-3.47472-9.1847-2.75607-12.63281-5.88672-1.62891-3.05014 3.10273-4.28131 5.15625-4.96289 2.84267-.70374 1.68918-3.92629-.5586-4.61914-2.98178-2.4121-7.65256-3.75633-9.25976-7.39063 2.06426-3.99262 8.37233-1.40136 10.82812-4.76953-.10494-3.69043-5.19246-4.33579-7.45508-6.5957-1.88093-.96407-3.70466-3.41967-1.07421-4.85547 2.20519-2.52042 7.67006-3.11107 7.79882-7.02539-2.65892-3.59413-8.20973-3.27956-12.03125-5.19922-1.90358-1.02623-7.45562-1.61834-5.95117-4.94141 2.58707-3.06753 8.82103-3.28781 9.2168-7.90625-1.7692-3.76787-7.21186-2.77984-10.67685-3.30054-2.19171-.54343-6.897.52689-7.17667-2.6936 1.03904-3.36862 6.00519-2.92458 8.57227-4.66211 2.91075-1.14465.85424-4.17804-1.24609-4.91992-2.42175-1.97149-7.18109-3.2265-7.36915-6.81055 1.96221-2.29317 7.74337.50742 7.39063-3.26562-3.17329-4.77575-6.78759-10.39082-13.14844-10.65625-11.63821-1.80729-23.42082-3.47526-35.23437-3.33008z" fill="#3c8ca7"/>
<g transform="translate(-53.88085,-79.78019)">
<path d="m427.44573,180.00536c13.25435-11.7749 32.03971-15.25327 56.29405-10.52818" fill="none" filter="url(#filter6784)" stroke="#154e73" stroke-linecap="round" stroke-linejoin="round" stroke-width="2.9"/>
<path d="m436.71686,192.81171c13.70273-6.91875 36.8127-12.58645 52.40497-2.86796" fill="none" filter="url(#filter6780)" stroke="#154e73" stroke-linecap="round" stroke-linejoin="round" stroke-width="2.9"/>
<path d="m440.13413,221.97986c18.03808-3.1458 30.00083-12.91924 66.96041,4.57659" fill="none" filter="url(#filter6776)" stroke="#154e73" stroke-linecap="round" stroke-linejoin="round" stroke-width="2.9"/>
<path d="m439.44663,254.58552c16.55796-3.70446 26.14443-12.20182 70.49563,3.20158" fill="none" filter="url(#filter6772)" stroke="#154e73" stroke-linecap="round" stroke-linejoin="round" stroke-width="2.9"/>
<path d="m415.9375,167.75c15.11812-11.81413 39.71868-7.37772 61.875-6.875" fill="none" filter="url(#filter6834)" stroke="#154e73" stroke-linecap="round" stroke-linejoin="round" stroke-width="2.9"/>
<path d="m439.3125,207.625c14.60363-6.27921 28.87499-13.44447 48.8125-5.5" fill="none" filter="url(#filter6830)" stroke="#154e73" stroke-linecap="round" stroke-linejoin="round" stroke-width="2.9"/>
<path d="m444.125,235.125c17.64583-6.54939 35.29167-11.48778 52.9375,0" fill="none" filter="url(#filter6826)" stroke="#154e73" stroke-linecap="round" stroke-linejoin="round" stroke-width="2.9"/>
<path d="m438.625,261.9375c28.5241,10.84426 48.58587,6.87943 70.125,5.5" fill="none" filter="url(#filter6822)" stroke="#154e73" stroke-linecap="round" stroke-linejoin="round" stroke-width="2.9"/>
</g>
<path d="m294.52893,228.09914a14.09794,16.52862 0 1,1 -.18621-.51117" fill="#1e4653" filter="url(#filter6922)" transform="translate(-53.88085,-80.75246)"/>
</svg>
