<?xml version="1.0" encoding="utf-8"?>
<!-- Generator: Adobe Illustrator 17.1.0, SVG Export Plug-In . SVG Version: 6.00 Build 0)  -->
<!DOCTYPE svg PUBLIC "-//W3C//DTD SVG 1.1//EN" "http://www.w3.org/Graphics/SVG/1.1/DTD/svg11.dtd">
<svg version="1.1" id="Layer_1" xmlns="http://www.w3.org/2000/svg" xmlns:xlink="http://www.w3.org/1999/xlink" x="0px" y="0px"
	 viewBox="0 0 100 100.5" enable-background="new 0 0 100 100.5" xml:space="preserve">
<title>green reeds</title>
<g>
	<title>Layer 1</title>
	<path id="svg_1" fill="#8DC63F" d="M9.7,93.7c4.2-12.3,10.2-2.5,6.4-27.1s-1.7-28.8,1.3-36.9s3.4-7.2,3-1.3s-4.7,15.3-4.2,17.8
		c0.4,2.5,0.4,14.8,2.1,19.9s1.3,12.7,1.3,16.9s-5.1,2.5-5.9,9.7C12.7,100.1,9.7,93.7,9.7,93.7z"/>
	<path id="svg_2" fill="#007F00" d="M8.9,91.2C7.6,68.7,4.2,74.2,7.6,58.6s1.3-21.2,0-30.1S6.4,10.7,6.4,8.1s1.7,5.1,3,12.3
		s3,27.1,3,30.9c0,3.8-1.3,14.4-1.3,17.8s2.1,14,2.1,19.9s0.4,11.4,0.4,11.4L8.9,91.2z"/>
	<path id="svg_3" fill="#8DC63F" d="M8.9,91.6C8.9,80.2,11,72.5,7.6,59S1.7,47.5,1.7,37.8s2.1,19.1,3,22.5s3,6.8,1.7,13.1
		c-1.3,6.4-3,15.3-3,15.3L0,95.4c0,0,6.4-0.4,7.6-0.4S8.9,91.6,8.9,91.6z"/>
	<path id="svg_4" fill="#8DC63F" d="M95.3,83.6c-1.3-22.5-4.7-16.9-1.3-32.6s1.3-21.2,0-30.1S92.8,3,92.8,0.5s1.7,5.1,3,12.3
		s3,27.1,3,30.9c0,3.8-1.3,14.4-1.3,17.8s2.1,14,2.1,19.9s0.4,11.4,0.4,11.4L95.3,83.6z"/>
	<path id="svg_5" fill="#007F00" d="M95.3,83.6c0-11.4,2.1-19.1-1.3-32.6s-5.9-11.4-5.9-21.2s2.1,19.1,3,22.5
		c0.8,3.4,3,6.8,1.7,13.1s-3,15.3-3,15.3l-3.4,6.8c0,0,6.4-0.4,7.6-0.4S95.3,83.6,95.3,83.6z"/>
	<path id="svg_6" fill="#007F3F" d="M83.9,62.8c0-5.5-2.1-28-2.1-28l2.1-12.7l3.8,50L83.9,62.8z"/>
	<path id="svg_7" fill="#8DC63F" d="M92.4,84.8c-1.3-6.4-4.7-13.1-4.7-14.8s-8.5-21.2-8.5-21.2L78,34l-1.3,13.6
		c0,0,0.8,11.9,3.8,16.9S83.1,81,83.1,81l-3.4,3l-0.8,1.7L92.4,84.8z"/>
</g>
</svg>
