<?xml version="1.0"?><svg width="960" height="841.89" xmlns="http://www.w3.org/2000/svg">
 <title>green reeds</title>

 <g>
  <title>Layer 1</title>
  <path id="svg_1" d="m385,524.890015c10,-29 24,-6 15,-64s-4,-68 3,-87s8,-17 7,-3s-11,36 -10,42s1,35 5,47s3,30 3,40s-12,6 -14,23s-9,2 -9,2z" stroke-width="0" stroke="#FFFFFF" fill="#8DC63F"/>
  <path id="svg_2" d="m383,518.890015c-3,-53 -11,-40 -3,-77s3,-50 0,-71s-3,-42 -3,-48s4,12 7,29s7,64 7,73s-3,34 -3,42s5,33 5,47s1,27 1,27l-11,-22z" stroke-width="0" stroke="#FFFFFF" fill="#007f00"/>
  <path id="svg_3" d="m383,519.890015c0,-27 5,-45 -3,-77s-14,-27 -14,-50s5,45 7,53s7,16 4,31s-7,36 -7,36l-8,16c0,0 15,-1 18,-1s3,-8 3,-8z" stroke-width="0" stroke="#FFFFFF" fill="#8DC63F"/>
  <path id="svg_4" d="m587,500.890015c-3,-53 -11,-40 -3,-77s3,-50 0,-71s-3,-42 -3,-48s4,12 7,29s7,64 7,73s-3,34 -3,42s5,33 5,47s1,27 1,27l-11,-22z" stroke-width="0" stroke="#FFFFFF" fill="#8DC63F"/>
  <path id="svg_5" d="m587,500.890015c0,-27 5,-45 -3,-77s-14,-27 -14,-50s5,45 7,53s7,16 4,31s-7,36 -7,36l-8,16c0,0 15,-1 18,-1s3,-8 3,-8z" stroke-width="0" stroke="#FFFFFF" fill="#007f00"/>
  <path id="svg_6" d="m560,451.890015c0,-13 -5,-66 -5,-66l5,-30l9,118l-9,-22z" stroke-width="0" stroke="#FFFFFF" fill="#007f3f"/>
  <path id="svg_7" d="m580,503.890015c-3,-15 -11,-31 -11,-35s-20,-50 -20,-50l-3,-35l-3,32c0,0 2,28 9,40s6,39 6,39l-8,7l-2,4l32,-2z" stroke-width="0" stroke="#FFFFFF" fill="#8DC63F"/>
 </g>
</svg>