<?xml version="1.0" encoding="utf-8"?>
<!-- Generator: Adobe Illustrator 17.1.0, SVG Export Plug-In . SVG Version: 6.00 Build 0)  -->
<!DOCTYPE svg PUBLIC "-//W3C//DTD SVG 1.1//EN" "http://www.w3.org/Graphics/SVG/1.1/DTD/svg11.dtd">
<svg version="1.1" id="Layer_1" xmlns="http://www.w3.org/2000/svg" xmlns:xlink="http://www.w3.org/1999/xlink" x="0px" y="0px"
	 viewBox="0 374.8 1536 1290.1" enable-background="new 0 374.8 1536 1290.1" xml:space="preserve">
<g transform="matrix(.36006,0,0,.36006,91.01136,60.90418)">
	<g transform="matrix(.99395,.10982,-.10982,.99395,94.90745,-8.29823)">
		<path fill="#ED8400" stroke="#000000" stroke-width="3.6157" d="M2786.2,934.3l-402.3,366l92.9,244.7l199.7,53L2786.2,934.3
			L2786.2,934.3z"/>
		<path fill="#ED8400" stroke="#000000" stroke-width="3.6157" d="M2480.2,1547.6l303.4-609.9"/>
	</g>
	<g transform="matrix(.21782,-.97599,.97599,.21782,-514.9388,173.8563)">
		<path fill="#FF9D00" stroke="#000000" stroke-width="6.4" d="M-2473.6,3818.6c0,0-230,976.4-218.3,1278.5s132.5-35.1,265.1-70.2
			c132.5-35.1,119-105.3,251.6-140.4s146,35.1,278.6,0s113.6-99.1,246.1-134.2s151.5,29,284-6.1s110.9-105.3,243.5-140.4
			s154.1,35.1,286.7,0c132.5-35.1,456.1,173.5,265.1-70.2c-191-243.6-1029.1-904.3-1029.1-904.3"/>
		
			<linearGradient id="SVGID_1_" gradientUnits="userSpaceOnUse" x1="-1065.574" y1="-440.8984" x2="-888.1283" y2="-430.9137" gradientTransform="matrix(0.2227 0.9981 0.9981 -0.2227 -2055.6855 5370.4238)">
			<stop  offset="0" style="stop-color:#000000"/>
			<stop  offset="1" style="stop-color:#000000;stop-opacity:0"/>
		</linearGradient>
		<path opacity="0.4" fill="url(#SVGID_1_)" enable-background="new    " d="M-2193,3759.7l-201.5,42.2c0,0,25.1,917,35.6,1197.3
			c29.9-13.5,88.3-81.1,166.5-109c78.3-27.9,161-13.2,226.8,5.6"/>
		
			<linearGradient id="SVGID_2_" gradientUnits="userSpaceOnUse" x1="-1033.5122" y1="20.4616" x2="-857.5253" y2="45.2672" gradientTransform="matrix(0.2227 0.9981 0.9981 -0.2227 -2055.6855 5370.4238)">
			<stop  offset="0" style="stop-color:#000000"/>
			<stop  offset="1" style="stop-color:#000000;stop-opacity:0"/>
		</linearGradient>
		<path opacity="0.4" fill="url(#SVGID_2_)" enable-background="new    " d="M-1806.3,3676.2l-178.7,37.6
			c0,0,104.5,876.6,138.5,1155c28.6-16,109.4-68.3,165.1-108.8c55.2-40.2,151-17.7,218.2-4.5"/>
		
			<linearGradient id="SVGID_3_" gradientUnits="userSpaceOnUse" x1="-983.3708" y1="493.7239" x2="-812.5914" y2="542.9282" gradientTransform="matrix(0.2227 0.9981 0.9981 -0.2227 -2055.6855 5370.4238)">
			<stop  offset="0" style="stop-color:#000000"/>
			<stop  offset="1" style="stop-color:#000000;stop-opacity:0"/>
		</linearGradient>
		<path opacity="0.4" fill="url(#SVGID_3_)" enable-background="new    " d="M-1467.3,3735.9l-132.4-103.2
			c0,0,230,829.5,302.7,1100.4c32-12.6,81.9-54.7,155.7-82.7c74.8-28.4,136.4-109.3,204.8-105.6"/>
	</g>
	<g transform="matrix(.72107,-.69287,.69287,.72107,-217.5166,452.5624)">
		<path fill="#ED8400" stroke="#000000" stroke-width="3.6157" d="M494.8,1282L92.5,1648l92.9,244.7l199.7,53L494.8,1282L494.8,1282
			z"/>
		<path fill="#ED8400" stroke="#000000" stroke-width="3.6157" d="M188.8,1895.3l303.4-609.9"/>
	</g>
	<g transform="matrix(.90924,-.41628,.41628,.90924,-253.9977,254.792)">
		<path fill="#ED8400" stroke="#000000" stroke-width="3.6157" d="M1216.1,1326.1l-402.3,366l92.9,244.7l199.7,53L1216.1,1326.1
			L1216.1,1326.1z"/>
		<path fill="#ED8400" stroke="#000000" stroke-width="3.6157" d="M910.1,1939.5l303.4-609.9"/>
	</g>
	<g transform="matrix(.53538,-.84461,.84461,.53538,-285.5892,647.1869)">
		<path fill="#ED8400" stroke="#000000" stroke-width="3.6157" d="M-226.2,962.5l-402.3,366l92.9,244.7l199.7,53L-226.2,962.5
			L-226.2,962.5z"/>
		<path fill="#ED8400" stroke="#000000" stroke-width="3.6157" d="M-532.2,1575.8l303.4-609.9"/>
	</g>
	<g transform="matrix(.40247,-.91543,.91543,.40247,-265.6061,777.2685)">
		<path fill="#ED8400" stroke="#000000" stroke-width="3.6157" d="M-606.3,743.3l-402.3,366l92.9,244.7l199.7,53L-606.3,743.3
			L-606.3,743.3z"/>
		<path fill="#ED8400" stroke="#000000" stroke-width="3.6157" d="M-912.3,1356.6l303.4-609.9"/>
	</g>
	<g transform="matrix(-3.202957e-2,-.99949,.99949,-3.202957e-2,-73.43019,1048.788)">
		<path fill="#ED8400" stroke="#000000" stroke-width="3.6157" d="M-1344.9-152.7l-402.3,366l92.9,244.7l199.7,53L-1344.9-152.7
			L-1344.9-152.7z"/>
		<path fill="#ED8400" stroke="#000000" stroke-width="3.6157" d="M-1650.9,460.6l303.4-609.9"/>
	</g>
	<g transform="matrix(-9.494077e-2,-.99548,.99548,-9.494077e-2,-38.76666,940.0262)">
		<path fill="#ED8400" stroke="#000000" stroke-width="3.6157" d="M-1159.2-281.3l-402.3,366l92.9,244.7l199.7,53L-1159.2-281.3
			L-1159.2-281.3z"/>
		<path fill="#ED8400" stroke="#000000" stroke-width="3.6157" d="M-1465.2,332l303.4-609.9"/>
	</g>
	<g transform="matrix(-.70369,-.7105,.7105,-.70369,358.0893,1036.907)">
		<path fill="#ED8400" stroke="#000000" stroke-width="3.6157" d="M-1146.4-1907.8l-402.3,366l92.9,244.7l199.7,53L-1146.4-1907.8
			L-1146.4-1907.8z"/>
		<path fill="#ED8400" stroke="#000000" stroke-width="3.6157" d="M-1452.4-1294.4l303.4-609.9"/>
	</g>
	<g transform="matrix(-.41434,-.91012,.91012,-.41434,181.0264,1117.545)">
		<path fill="#ED8400" stroke="#000000" stroke-width="3.6157" d="M-1482.3-1083.1l-402.3,366l92.9,244.7l199.7,53L-1482.3-1083.1
			L-1482.3-1083.1z"/>
		<path fill="#ED8400" stroke="#000000" stroke-width="3.6157" d="M-1788.3-469.7l303.4-609.9"/>
	</g>
	<g transform="translate(-137.189,-6.76785)">
		<path fill="#ED8400" stroke="#000000" stroke-width="3.6157" d="M2210.5,1015.8l-402.3,366l92.9,244.7l199.7,53L2210.5,1015.8
			L2210.5,1015.8z"/>
		<path fill="#ED8400" stroke="#000000" stroke-width="3.6157" d="M1904.5,1629.1l303.4-609.9"/>
	</g>
	<g transform="matrix(.81953,.57303,-.57303,.81953,417.4547,-62.80167)">
		<path fill="#ED8400" stroke="#000000" stroke-width="3.6157" d="M3746.8-26.6l-402.3,366l92.9,244.7l199.7,53L3746.8-26.6
			L3746.8-26.6z"/>
		<path fill="#ED8400" stroke="#000000" stroke-width="3.6157" d="M3440.8,586.8l303.4-609.9"/>
	</g>
	<g transform="matrix(.79384,.60813,-.60813,.79384,478.7921,111.3181)">
		<path fill="#ED8400" stroke="#000000" stroke-width="3.6157" d="M4044.8,82.8l-402.3,366l92.9,244.7l199.7,53L4044.8,82.8
			L4044.8,82.8z"/>
		<path fill="#ED8400" stroke="#000000" stroke-width="3.6157" d="M3738.8,696.1l303.4-609.9"/>
	</g>
	<g transform="matrix(.26539,.96414,-.96414,.26539,736.6845,122.0591)">
		<path fill="#ED8400" stroke="#000000" stroke-width="3.6157" d="M4051.2-1699l-402.3,366l92.9,244.7l199.7,53L4051.2-1699
			L4051.2-1699z"/>
		<path fill="#ED8400" stroke="#000000" stroke-width="3.6157" d="M3745.2-1085.6l303.4-609.9"/>
	</g>
	<g transform="matrix(-.35729,.934,-.934,-.35729,985.6313,276.13)">
		<path fill="#ED8400" stroke="#000000" stroke-width="3.6157" d="M2969.5-3187.3l-402.3,366l92.9,244.7l199.7,53L2969.5-3187.3
			L2969.5-3187.3z"/>
		<path fill="#ED8400" stroke="#000000" stroke-width="3.6157" d="M2663.5-2574l303.4-609.9"/>
	</g>
	<g transform="translate(-226.8798,-35.03341)">
		<path fill="#ED8400" stroke="#000000" stroke-width="3.6157" d="M2045.4,963.8l-402.3,366l92.9,244.7l199.7,53L2045.4,963.8
			L2045.4,963.8z"/>
		<path fill="#ED8400" stroke="#000000" stroke-width="3.6157" d="M1739.4,1577.1l303.4-609.9"/>
	</g>
	<g transform="matrix(-.86006,-.51019,.51019,-.86006,453.2857,954.1351)">
		<path fill="#ED8400" stroke="#000000" stroke-width="3.6157" d="M-731.7-2430.5l-402.3,366l92.9,244.7l199.7,53L-731.7-2430.5
			L-731.7-2430.5z"/>
		<path fill="#ED8400" stroke="#000000" stroke-width="3.6157" d="M-1037.7-1817.1l303.4-609.9"/>
	</g>
	<g transform="matrix(.72107,-.69287,.69287,.72107,-319.7152,478.9569)">
		<path fill="#ED8400" stroke="#000000" stroke-width="3.6157" d="M325.5,1186.7l-402.3,366l92.9,244.7l199.7,53L325.5,1186.7
			L325.5,1186.7z"/>
		<path fill="#ED8400" stroke="#000000" stroke-width="3.6157" d="M19.6,1800.1l303.4-609.9"/>
	</g>
	<g transform="matrix(.20607,-.97854,.97854,.20607,-199.8211,876.1108)">
		<path fill="#ED8400" stroke="#000000" stroke-width="3.6157" d="M-933.5,341.1l-402.3,366l92.9,244.7l199.7,53L-933.5,341.1
			L-933.5,341.1z"/>
		<path fill="#ED8400" stroke="#000000" stroke-width="3.6157" d="M-1239.5,954.4l303.4-609.9"/>
	</g>
	<g transform="matrix(-.12794,-.99178,.99178,-.12794,-29.74262,1128.313)">
		<path fill="#ED8400" stroke="#000000" stroke-width="3.6157" d="M-1506.3-414l-402.3,366l92.9,244.7l199.7,53L-1506.3-414
			L-1506.3-414z"/>
		<path fill="#ED8400" stroke="#000000" stroke-width="3.6157" d="M-1812.3,199.3l303.4-609.9"/>
	</g>
	<path fill="#ED8400" stroke="#000000" stroke-width="6.25" stroke-linecap="round" stroke-linejoin="round" d="M3370.1,2802.3
		c0,891.8-762.9,1614.8-1704.1,1614.8S-38,3694.2-38,2802.3c0,0,0,0,0,0c0-891.8,762.9-1614.8,1704.1-1614.8
		S3370.1,1910.5,3370.1,2802.3L3370.1,2802.3z"/>
	
		<linearGradient id="SVGID_4_" gradientUnits="userSpaceOnUse" x1="-782.6411" y1="4535.9688" x2="-557.0518" y2="4495.9688" gradientTransform="matrix(1.0226 0 0 -1.0226 723.5979 7047.5366)">
		<stop  offset="0" style="stop-color:#ED7300"/>
		<stop  offset="1" style="stop-color:#ED7300;stop-opacity:0"/>
	</linearGradient>
	<path fill="url(#SVGID_4_)" d="M1675.8,1203.8c-940.6,0-1704.1,723.4-1704.1,1614.8c0,507,247.2,959.5,633.3,1255.6
		C356.8,3793.6,207,3432.2,207,3037.7c0-891.4,763.4-1614.9,1704.1-1614.9c405.6,0,778.1,134.8,1070.8,359.3
		C2669.2,1428.7,2200.2,1203.8,1675.8,1203.8L1675.8,1203.8z"/>
	
		<radialGradient id="SVGID_5_" cx="1881.7976" cy="4127.54" r="603.125" gradientTransform="matrix(1.0226 0 0 -0.9693 603.5027 6786.2031)" gradientUnits="userSpaceOnUse">
		<stop  offset="0" style="stop-color:#EDBD00"/>
		<stop  offset="1" style="stop-color:#EDBD00;stop-opacity:0"/>
	</radialGradient>
	<path fill="url(#SVGID_5_)" d="M3355.5,2785.3c0,891.8-762.9,1614.8-1704.1,1614.8S-52.6,3677.1-52.6,2785.3c0,0,0,0,0,0
		c0-891.8,762.9-1614.8,1704.1-1614.8S3355.5,1893.5,3355.5,2785.3L3355.5,2785.3z"/>
	
		<path opacity="0.7" fill="#FFFFFF" stroke="#868686" stroke-width="27.2607" stroke-linecap="round" stroke-linejoin="round" enable-background="new    " d="
		M1453.9,1980.3c0,215.8-175,390.8-390.8,390.8c-215.8,0-390.8-175-390.8-390.8c0,0,0,0,0,0c0-215.8,175-390.8,390.8-390.8
		C1279,1589.5,1453.9,1764.5,1453.9,1980.3C1453.9,1980.3,1453.9,1980.3,1453.9,1980.3z"/>
	
		<path opacity="0.7" fill="#FFFFFF" stroke="#3C34FF" stroke-width="5" stroke-linecap="round" stroke-linejoin="round" stroke-opacity="0.1833" enable-background="new    " d="
		M1457.2,1981.6c0,215.8-175,390.8-390.8,390.8s-390.8-175-390.8-390.8c0,0,0,0,0,0c0-215.8,175-390.8,390.8-390.8
		C1282.2,1590.8,1457.2,1765.7,1457.2,1981.6C1457.2,1981.6,1457.2,1981.6,1457.2,1981.6z"/>
	
		<path opacity="0.7" fill="#868686" stroke="#3C34FF" stroke-width="3.8224" stroke-linecap="round" stroke-linejoin="round" stroke-opacity="0.1833" enable-background="new    " d="
		M1053,1663.4c-164.9,0-298.7,133.8-298.7,298.7c0,119.3,70.2,221.9,171.3,269.8c-52.2-53.8-84.5-127-84.5-207.8
		c0-164.9,133.8-298.7,298.7-298.7c45.6,0,88.7,10.5,127.4,28.8C1213,1698.2,1137.1,1663.4,1053,1663.4z"/>
	<path stroke="#3C34FF" stroke-width="5" stroke-linecap="round" stroke-linejoin="round" stroke-opacity="0.1833" d="
		M1129.1,1982.8c0,44-35.7,79.8-79.7,79.8c-44,0-79.8-35.7-79.8-79.8c0,0,0,0,0,0c0-44,35.7-79.8,79.7-79.8
		C1093.4,1903,1129.1,1938.7,1129.1,1982.8C1129.1,1982.8,1129.1,1982.8,1129.1,1982.8z"/>
	<g transform="translate(180.8572,.85714)">
		
			<path opacity="0.7" fill="#FFFFFF" stroke="#868686" stroke-width="27.2607" stroke-linecap="round" stroke-linejoin="round" enable-background="new    " d="
			M1786.7,1981.9c0,215.8-175,390.8-390.8,390.8c-215.8,0-390.8-175-390.8-390.8c0,0,0,0,0,0c0-215.8,175-390.8,390.8-390.8
			S1786.7,1766.1,1786.7,1981.9C1786.7,1981.9,1786.7,1981.9,1786.7,1981.9z"/>
		
			<path opacity="0.7" fill="#FFFFFF" stroke="#3C34FF" stroke-width="5" stroke-linecap="round" stroke-linejoin="round" stroke-opacity="0.1833" enable-background="new    " d="
			M1790,1983.2c0,215.8-175,390.8-390.8,390.8c-215.8,0-390.8-175-390.8-390.8c0,0,0,0,0,0c0-215.8,175-390.8,390.8-390.8
			S1790,1767.3,1790,1983.2C1790,1983.1,1790,1983.1,1790,1983.2z"/>
		
			<path opacity="0.7" fill="#868686" stroke="#3C34FF" stroke-width="3.8224" stroke-linecap="round" stroke-linejoin="round" stroke-opacity="0.1833" enable-background="new    " d="
			M1385.8,1664.9c-164.9,0-298.7,133.8-298.7,298.7c0,119.3,70.2,221.9,171.3,269.8c-52.2-53.8-84.5-127-84.5-207.8
			c0-164.9,133.8-298.7,298.7-298.7c45.6,0,88.7,10.5,127.4,28.8C1545.8,1699.8,1469.9,1664.9,1385.8,1664.9z"/>
		<path stroke="#3C34FF" stroke-width="5" stroke-linecap="round" stroke-linejoin="round" stroke-opacity="0.1833" d="
			M1461.9,1984.3c0,44-35.7,79.8-79.7,79.8c-44,0-79.8-35.7-79.8-79.8c0,0,0,0,0,0c0-44,35.7-79.8,79.7-79.8
			C1426.2,1904.6,1461.9,1940.3,1461.9,1984.3C1461.9,1984.3,1461.9,1984.3,1461.9,1984.3z"/>
	</g>
	<path fill="#ED8400" stroke="#000000" stroke-width="6.25" stroke-linecap="round" stroke-linejoin="round" d="M992.6,3005.2
		c0,49.3-38.1,89.3-85.2,89.3c-47.1,0-85.2-40-85.2-89.3s38.1-89.3,85.2-89.3C954.4,2915.9,992.6,2955.9,992.6,3005.2z"/>
	<g transform="matrix(.96609,.2582,-.2582,.96609,17.45768,-163.8581)">
		<path fill="#ED8400" stroke="#000000" stroke-width="3.6157" d="M2762.8,560.9l-402.3,366l92.9,244.7l199.7,53L2762.8,560.9
			L2762.8,560.9z"/>
		<path fill="#ED8400" stroke="#000000" stroke-width="3.6157" d="M2456.8,1174.3l303.4-609.9"/>
	</g>
	<path fill="#C20000" stroke="#000000" stroke-width="6.25" stroke-linecap="round" stroke-linejoin="round" d="M1030.9,3001.1
		c0,67.6-52.3,122.5-116.9,122.5s-116.9-54.8-116.9-122.5s52.3-122.5,116.9-122.5S1030.9,2933.5,1030.9,3001.1z"/>
	<path fill="#ED8400" stroke="#000000" stroke-width="6.25" stroke-linecap="round" stroke-linejoin="round" d="M981.6,3001.1
		c0,39.1-30.3,70.8-67.6,70.8c-37.3,0-67.6-31.7-67.6-70.8s30.3-70.8,67.6-70.8C951.3,2930.3,981.6,2962,981.6,3001.1z"/>
	<g transform="matrix(.87271,.48824,-.48824,.87271,358.7331,-107.6048)">
		<path fill="#ED8400" stroke="#000000" stroke-width="3.6157" d="M3568.6,127.3l-402.3,366l92.9,244.7l199.7,53L3568.6,127.3
			L3568.6,127.3z"/>
		<path fill="#ED8400" stroke="#000000" stroke-width="3.6157" d="M3262.6,740.7L3566,130.8"/>
	</g>
	<g transform="matrix(.907,.42112,-.42112,.907,216.5118,-139.0125)">
		<path fill="#ED8400" stroke="#000000" stroke-width="3.6157" d="M3264.5,302l-402.3,366l92.9,244.7l199.7,53L3264.5,302
			L3264.5,302z"/>
		<path fill="#ED8400" stroke="#000000" stroke-width="3.6157" d="M2958.5,915.3l303.4-609.9"/>
	</g>
	<g transform="matrix(.81953,.57303,-.57303,.81953,251.7008,-11.4229)">
		<path fill="#ED8400" stroke="#000000" stroke-width="3.6157" d="M3551,225.7l-402.3,366l92.9,244.7l199.7,53L3551,225.7
			L3551,225.7z"/>
		<path fill="#ED8400" stroke="#000000" stroke-width="3.6157" d="M3245,839l303.4-609.9"/>
	</g>
	<g transform="matrix(.79384,.60813,-.60813,.79384,296.4912,175.0431)">
		<path fill="#ED8400" stroke="#000000" stroke-width="3.6157" d="M3849.8,379.8l-402.3,366l92.9,244.7l199.7,53L3849.8,379.8
			L3849.8,379.8z"/>
		<path fill="#ED8400" stroke="#000000" stroke-width="3.6157" d="M3543.8,993.2l303.4-609.9"/>
	</g>
	<g transform="matrix(2.626713e-2,-.60334,.31087,1.3534e-2,263.0939,489.7913)">
		<path fill="#FF9D00" stroke="#000000" stroke-width="6.4" d="M-4431.3,7283.9c0,0-230,976.5-218.3,1278.5
			c11.7,302.1,132.5-35.1,265.1-70.2s119-105.3,251.6-140.4c132.5-35.1,146,35.1,278.6,0c132.5-35.1,113.6-99.1,246.1-134.2
			c132.5-35.1,151.5,29,284-6.1c132.5-35.1,110.9-105.3,243.5-140.4c132.5-35.1,154.1,35.1,286.7,0
			c132.5-35.1,456.1,173.5,265.1-70.2s-1029.1-904.3-1029.1-904.3"/>
		
			<linearGradient id="SVGID_6_" gradientUnits="userSpaceOnUse" x1="-1142.6768" y1="-4537.0532" x2="-965.231" y2="-4527.0684" gradientTransform="matrix(2.686079e-02 0.617 0.3179 -1.383982e-02 -3217.7017 8512.6191)">
			<stop  offset="0" style="stop-color:#000000"/>
			<stop  offset="1" style="stop-color:#000000;stop-opacity:0"/>
		</linearGradient>
		<path opacity="0.4" fill="url(#SVGID_6_)" enable-background="new    " d="M-4150.7,7224.9l-201.5,42.2c0,0,25.1,917,35.6,1197.3
			c29.9-13.5,88.3-81.1,166.5-109c78.3-27.9,161-13.2,226.8,5.6"/>
		
			<linearGradient id="SVGID_7_" gradientUnits="userSpaceOnUse" x1="-1224.224" y1="-3059.238" x2="-1048.2371" y2="-3034.4324" gradientTransform="matrix(2.686079e-02 0.617 0.3179 -1.383982e-02 -3217.7017 8512.6191)">
			<stop  offset="0" style="stop-color:#000000"/>
			<stop  offset="1" style="stop-color:#000000;stop-opacity:0"/>
		</linearGradient>
		<path opacity="0.4" fill="url(#SVGID_7_)" enable-background="new    " d="M-3764,7141.5l-178.7,37.6c0,0,104.5,876.6,138.5,1155
			c28.6-16,109.4-68.3,165.1-108.8c55.2-40.2,151-17.7,218.2-4.5"/>
		
			<linearGradient id="SVGID_8_" gradientUnits="userSpaceOnUse" x1="-1279.7488" y1="-1533.5857" x2="-1108.9694" y2="-1484.3813" gradientTransform="matrix(2.686079e-02 0.617 0.3179 -1.383982e-02 -3217.7017 8512.6191)">
			<stop  offset="0" style="stop-color:#000000"/>
			<stop  offset="1" style="stop-color:#000000;stop-opacity:0"/>
		</linearGradient>
		<path opacity="0.4" fill="url(#SVGID_8_)" enable-background="new    " d="M-3425,7201.1l-132.4-103.2c0,0,230,829.5,302.7,1100.4
			c32-12.6,81.9-54.7,155.7-82.7c74.8-28.4,136.4-109.3,204.8-105.6"/>
	</g>
	<g transform="matrix(.59101,.80667,-.80667,.59101,596.2664,85.06293)">
		<path fill="#ED8400" stroke="#000000" stroke-width="3.6157" d="M4179.9-713.7l-402.3,366l92.9,244.7l199.7,53L4179.9-713.7
			L4179.9-713.7z"/>
		<path fill="#ED8400" stroke="#000000" stroke-width="3.6157" d="M3873.9-100.4l303.4-609.9"/>
	</g>
	<g transform="matrix(.70651,.7077,-.7077,.70651,513.0506,-63.5811)">
		<path fill="#ED8400" stroke="#000000" stroke-width="3.6157" d="M3904.2-463.8l-402.3,366l92.9,244.7l199.7,53L3904.2-463.8
			L3904.2-463.8z"/>
		<path fill="#ED8400" stroke="#000000" stroke-width="3.6157" d="M3598.2,149.6l303.4-609.9"/>
	</g>
	<g transform="matrix(-.15954,.98719,-.98719,-.15954,829.9327,310.3255)">
		<path fill="#ED8400" stroke="#000000" stroke-width="3.6157" d="M3629.7-2657.6l-402.3,366l92.9,244.7l199.7,53L3629.7-2657.6
			L3629.7-2657.6z"/>
		<path fill="#ED8400" stroke="#000000" stroke-width="3.6157" d="M3323.7-2044.3l303.4-609.9"/>
	</g>
	<g transform="matrix(4.564402e-2,.99896,-.99896,4.564402e-2,843.6471,231.4495)">
		<path fill="#ED8400" stroke="#000000" stroke-width="3.6157" d="M3917.8-2307.6l-402.3,366l92.9,244.7l199.7,53L3917.8-2307.6
			L3917.8-2307.6z"/>
		<path fill="#ED8400" stroke="#000000" stroke-width="3.6157" d="M3611.8-1694.3l303.4-609.9"/>
	</g>
	<g transform="matrix(.26539,.96414,-.96414,.26539,622.9052,159.9157)">
		<path fill="#ED8400" stroke="#000000" stroke-width="3.6157" d="M4062.8-1478.6l-402.3,366l92.9,244.7l199.7,53L4062.8-1478.6
			L4062.8-1478.6z"/>
		<path fill="#ED8400" stroke="#000000" stroke-width="3.6157" d="M3756.8-865.3l303.4-609.9"/>
	</g>
	<g transform="matrix(.25145,-.59629,.59629,.25145,-236.78616,586.75136)">
		<path fill="#ED8400" stroke="#000000" stroke-width="3.6157" d="M-1520.9,1157.4l-402.3,366l92.9,244.7l199.7,53L-1520.9,1157.4
			L-1520.9,1157.4z"/>
		<path fill="#ED8400" stroke="#000000" stroke-width="3.6157" d="M-1826.9,1770.7l303.4-609.9"/>
	</g>
	<g transform="matrix(.50205,-.40832,.40832,.50205,-32.30788,208.34028)">
		<path fill="#ED8400" stroke="#000000" stroke-width="3.6157" d="M741.4,2162.5l-402.3,366l92.9,244.7l199.7,53L741.4,2162.5
			L741.4,2162.5z"/>
		<path fill="#ED8400" stroke="#000000" stroke-width="3.6157" d="M435.4,2775.8L738.8,2166"/>
	</g>
</g>
</svg>
