<?xml version="1.0" encoding="utf-8"?>
<!-- Generator: Adobe Illustrator 17.1.0, SVG Export Plug-In . SVG Version: 6.00 Build 0)  -->
<!DOCTYPE svg PUBLIC "-//W3C//DTD SVG 1.1//EN" "http://www.w3.org/Graphics/SVG/1.1/DTD/svg11.dtd">
<svg version="1.1" id="Layer_1" xmlns="http://www.w3.org/2000/svg" xmlns:xlink="http://www.w3.org/1999/xlink" x="0px" y="0px"
	 viewBox="180 0 1172 2048" enable-background="new 180 0 1172 2048" xml:space="preserve">
<filter  width="1.34091" height="1.27535" id="filter6922" x="-.17045" y="-.13768">
	<feGaussianBlur  stdDeviation="1.4505"></feGaussianBlur>
</filter>
<filter  id="filter6900">
	<feGaussianBlur  stdDeviation="3.56745"></feGaussianBlur>
</filter>
<filter  id="filter6871">
	<feGaussianBlur  stdDeviation="1.71467"></feGaussianBlur>
</filter>
<filter  width="1.15803" height="2.20652" id="filter6834" x="-.07901" y="-.60326">
	<feGaussianBlur  stdDeviation="2.03711"></feGaussianBlur>
</filter>
<filter  width="1.20032" height="2.08529" id="filter6830" x="-.10016" y="-.54264">
	<feGaussianBlur  stdDeviation="2.03711"></feGaussianBlur>
</filter>
<filter  width="1.18471" height="2.41993" id="filter6826" x="-.09236" y="-.70997">
	<feGaussianBlur  stdDeviation="2.03711"></feGaussianBlur>
</filter>
<filter  width="1.13944" height="2.3299" id="filter6822" x="-.06972" y="-.66495">
	<feGaussianBlur  stdDeviation="2.03711"></feGaussianBlur>
</filter>
<filter  width="1.20533" height="1.91975" id="filter6784" x="-.10266" y="-.45988">
	<feGaussianBlur  stdDeviation="2.40806"></feGaussianBlur>
</filter>
<filter  width="1.22056" height="2.43449" id="filter6780" x="-.11028" y="-.71725">
	<feGaussianBlur  stdDeviation="2.40806"></feGaussianBlur>
</filter>
<filter  width="1.17262" height="2.13944" id="filter6776" x="-.08631" y="-.56972">
	<feGaussianBlur  stdDeviation="2.40806"></feGaussianBlur>
</filter>
<filter  width="1.16396" height="2.29938" id="filter6772" x="-.08198" y="-.64969">
	<feGaussianBlur  stdDeviation="2.40806"></feGaussianBlur>
</filter>
<filter  width="1.21479" height="2.51081" id="filter6744" x="-.10739" y="-.7554">
	<feGaussianBlur  stdDeviation="2.43032"></feGaussianBlur>
</filter>
<filter  width="1.19282" height="1.9753" id="filter6740" x="-.09641" y="-.48765">
	<feGaussianBlur  stdDeviation="2.43032"></feGaussianBlur>
</filter>
<filter  width="1.17139" height="1.94143" id="filter6736" x="-.0857" y="-.47071">
	<feGaussianBlur  stdDeviation="2.43032"></feGaussianBlur>
</filter>
<filter  width="1.20693" height="1.73445" id="filter6732" x="-.10346" y="-.36722">
	<feGaussianBlur  stdDeviation="2.43032"></feGaussianBlur>
</filter>
<filter  width="1.21754" height="1.49906" id="filter6728" x="-.10877" y="-.24953">
	<feGaussianBlur  stdDeviation="2.43032"></feGaussianBlur>
</filter>
<filter  id="filter6633">
	<feGaussianBlur  stdDeviation="2.61738"></feGaussianBlur>
</filter>
<radialGradient id="SVGID_1_" cx="344.3537" cy="1399.491" r="290.4729" gradientTransform="matrix(1.8199 -0.5673 -1.1362 -3.6449 1697.011 6355.1528)" gradientUnits="userSpaceOnUse">
	<stop  offset="0" style="stop-color:#FFFFFF"/>
	<stop  offset="1" style="stop-color:#50ADCB"/>
</radialGradient>
<path fill="url(#SVGID_1_)" stroke="#154E73" stroke-width="7.3" stroke-linecap="round" stroke-linejoin="round" d="M208.2,492.5
	c49.7,39.6,42.9,54.6,34.1,78.4C347.4,513,461.3,427,569.4,422c99,1.6,181.6,46,327.7-74.8c28.8-119.6-13.7-154.4-53.4-192.4
	c39-38,81.7-27.9,140.4-20.1c8.5,5.5,38.6,37.3,5.7,30.8c14.8,7.9,39.8,20.1,0,28.5c41-4.1,43,19.4,15.3,27
	c17.7,8.2,61.3,9.8,16.8,33.5c19.6,10.9,38.2,22.2-1.3,26.4c15.3,9.5,40.1,19,7.3,28.5c24.1,5.6,43,16.3,11.7,23.5
	c16.8,12,13.3,19.6,0,24.9c-38,11.3-76,18.3-114-3.6c-26.4-8.4-36.3,3-46.3,14.2C810.8,425,795,483,774.6,517
	c-20.4,36-37.8,72.1-44.8,108.1c-14.8,36.5-39.4,71-39.2,110.4c-11.8,28.7-12.2,48.9-10.7,67.7c-24.3,62,1.4,99,7.1,146
	c4.2,36.3-17.1,44.4,42.7,142.5c-8.3,69.6,57.9,109.4,114,153.2c32.2,20.1,65.3,39.4,114,46.3c13.9,11.5,17.3,28.2,17.8,46.3
	c-8.3,33.2-4.9,66.5,3.6,99.7c-7.4,10.4-22,13.6-10.7,42.7c-10.8,19.8-12.9,41-3.6,64.1c-20.4,0.4-20.6,34.6-21.4,67.7
	c-30.6,7.5-18.2,41.8-24.9,64.1c-17.4,11.2-16.7,28.5-14.2,46.3c-39.1,9.9-31.5,34.2-28.5,57c-35.2,3.6-32.9,22.7-28.5,42.7
	c-22.6-2.7-28.8,7.9-17.8,32.1c-14.3-15.8-24.2-13.8-28.5,10.7c-11.9-2-23.7-15.8-35.6,3.6c-17.5-13-32.2-6.7-46.3,3.6
	c-16.4-10.6-29.7-5.8-42.7,0c-47.7,2.4-55.4-7.1-71.2-14.2c-51.1-34.7-41.9-64.4-57-96.2c-10.9-48,3-66.2,7.1-96.2
	c23.4-41.5,48.3-73.3,78.4-74.8c51.1-26,64.5-3.8,78.4,3.6c51.1,28.3,46.5,45.4,67.7,67.7c27.3,15.4,11.4-35.9,3.6-74.8
	c-6.5-23.6-30.6-43.7-53.4-64.1c-78.5-29.4-92.6,0.2-135.4,3.6c-90.6,43.5-93,87.4-105.2,110.6c-8.8,30.7-26.3,76.9-25.5,114
	c-8,53.9,9.2,102.2,31,149.4c35.6,59,83.4,93.8,139.1,115.9c76.2,45.4,137.4,13.7,156.5,8.8c62.8-4,86-42.6,124.7-67.7
	c38.9,11.6,31.7-15.2,32.1-35.6c34.8-7.7,33.3-25.2,32.1-42.7c14.3-8.3,39.3-5.9,32.1-35.6c25.5-2.6,25.7-27.8,21.4-57
	c24.6-10.1,37.6-26.6,32.1-53.4c31.7-18.6,29.1-30.7,7.1-39.2c17.6-9.2,36.7-17.5,24.9-46.3c26.6-24.1,28.2-43.2,21.4-60.6
	c6.3-18.6,25.6-29.8,10.7-60.6c26-14.2,25.2-40.3,21.4-67.7c15.9-14.3,18.3-32.4,10.7-53.4c23.8-25.8,15.6-60.7,17.8-92.6
	c15.7-27.7-1.5-46.1-7.1-67.7c21.3-9.2,19.5-27.1,14.2-46.3c-27.7-19.5-26.7-56.9-28.5-92.6c11.7-49.8,22.6-99.3,17.8-142.5
	c7.2-17.8,13.6-35.6,14.2-53.4c-7-22.6,1.6-45.1,3.6-67.7c12.5-20.1,22.9-44.4,32.1-71.2c7.5-10.8,24.8-16,10.7-39.2
	c20.7-17.4,27.1-36.2,14.2-57c16.3-38.2,2.4-52.3-14.2-64.1c11.2-24.3,42.4-47.4,7.1-74.8c7-27.9,32.8-57.1-3.6-81.9
	c11.7-16.6,21.3-32.7,0-42.7c18.3-16.7,11.3-29.2-10.7-39.2c-1.4-19.3,27.7-35.2-28.5-60.6c12.6-34.7-4.8-56.6-39.2-71.2
	c11.7-24.3,24.9-49-32.1-57c19.3-28.5-1.4-33.6-21.4-39.2c15.7-17.4,9.5-32.1-28.5-42.7c-1.2-17.8,7.3-40.5-32.1-39.2
	c-17.8-26.1-35.6-44.3-53.4-10.7c-15.1-26.8-31.4-34.2-49.9-10.7c-14.5-37.8-24.1-16.1-35.6-17.8c-15.9-27.6-22.5-15.3-28.5,0
	c-25-12.9-26.4,1-28.5,14.2c-14-10.9-27.9-21.6-32.1,3.6c-19-6.6-40-18-42.7,14.2c-16.7-18.4-28.6-20.6-28.5,17.8
	c-20.1-2.2-39.7-3.6-49.9,10.7c-58.9,31.5-26.8,69.9-74.8,110.4c-13.6,8.2-21.4,4.9-24.9-7.1c-0.8-20.4,14.6-68.7-7.1-53.4
	c-8.3,2-16.6,13.6-24.9,39.2c-20.8,44.6-15.4,62.9-21.4,92.6c2.5,25.2-10.9,37.8-24.9,49.9C434.5,369.3,409.6,407.7,208.2,492.5
	L208.2,492.5z"/>
<path fill="#3C8CA7" stroke="#154E73" stroke-width="7.3" stroke-linecap="round" stroke-linejoin="round" d="M1188.2,921
	c0.4-51.8,88.9-17.6,120.3-26.5c24.9,2.6,13,25.3,1.9,47.6c14,14.2,25.3,27.5-3.6,28.5c19.6,28,29.8,52.2-7.1,57
	c36.1,24.4,35,42.6,10.7,57c-2.7,11.8,36.8,37.1-14.2,32.1c11,21.6,30.7,42.2-6.9,48.2c33.8,51.3,11.3,46.3-14.5,48
	c-41.8-1.4-70.8-10.1-89.1-24.9C1123.1,1166.6,1174.9,963.5,1188.2,921L1188.2,921z"/>
<g transform="translate(-53.88085,-79.78019)" filter="url(#filter6900)">
	<path fill="none" stroke="#154E73" stroke-width="8" stroke-linecap="round" stroke-linejoin="round" d="M1090,252.5
		c60,74,107.6,156.2,117.5,263.6c-2.2,61-0.1,123.5-21.4,178.1c4.1,37.2,14.3,76-7.1,106.9c-1.2,51.7-14.3,93.3-35.6,128.2
		c0.5,57.3-12.3,98-24.9,138.9c4.5,45.6,15,92.8,7.1,135.4"/>
	<path fill="none" stroke="#154E73" stroke-width="8" stroke-linecap="round" stroke-linejoin="round" d="M901.2,505.4
		c6.8,21.1,22.8,30,39.6,37.9c59.5,64.3,110.4,26.8,156.7,17.8c42.8,0.5,83.6-18.9,106.5-45c45.3,6.6,66.3-5.8,82.4-15.5"/>
	<path fill="none" stroke="#154E73" stroke-width="8" stroke-linecap="round" stroke-linejoin="round" d="M979.5,455.5
		c-18.9,22.6-36.5,45.9-35.6,78.4c-36.5,34-67.2,70.7-60.6,124.7c-48.3,42.5-43.1,77.9-42.7,114c-14.4,40.1-28.8,80.2-7.1,110.4
		c-12.8,59.9-10.3,118,7.1,174.5c9,44.9-15.5,71.6,67.7,156.7"/>
	<path fill="none" stroke="#154E73" stroke-width="8" stroke-linecap="round" stroke-linejoin="round" d="M829.9,626.5
		c17.6,15.4,33.1,38.6,57,32.1c43.5,39.4,96.2,39.2,149.6,35.6c49.6,29.4,100.7,47,160.3,0c46.9,6.7,70.7-11.2,91.8-23.9"/>
	<path fill="none" stroke="#154E73" stroke-width="8" stroke-linecap="round" stroke-linejoin="round" d="M782.1,719.7
		c9.5,22.9,24.2,40.7,57,53.4c63.7,37.1,110.5,24.8,151.1-0.6c50.5,64.2,110.9,68.5,178.1,32.1c52.3,15.9,109.8-0.2,122.6-23.7"/>
	<path fill="none" stroke="#154E73" stroke-width="8" stroke-linecap="round" stroke-linejoin="round" d="M744.4,875.8
		c14.3,35.8,41.2,45.3,89.1,10.7c30.9,57.3,81.2,59,135.4,49.9c71.9,20.4,122.1,4.8,174.5-7.1c31.7,16.6,63.4,21.3,95.1,7.7"/>
	<path fill="none" stroke="#154E73" stroke-width="8" stroke-linecap="round" stroke-linejoin="round" d="M740.9,1025.5
		c29.8,28.9,51.8,74.6,106.9,49.9c42.9,19.2,80.1,9.1,116.3-8.6c58,26.2,112.6,23.5,167.4,10.7c19.8,14.2,51.1,11.8,101-37.7"/>
	<path fill="none" stroke="#154E73" stroke-width="8" stroke-linecap="round" stroke-linejoin="round" d="M793.2,1187.4
		c32.5,12.5,85.4,48.3,111.5,16.2c55.3,33.5,81,15.2,110.4,3.6c62.1,31,80.1,5.3,113.3-5.3c34.9,25.1,63.6,10.8,86.1,1.7"/>
	<path fill="none" stroke="#154E73" stroke-width="8" stroke-linecap="round" stroke-linejoin="round" d="M1066.2,445.6
		c20.9,34.9,33,71.7,23.7,113.2c-22.8,44.3-46.9,88.1-53.4,138.9c-12.7,22.5-15.1,36.7-42.7,71.2c-16.4,49.4-41.5,78-42.7,163.9
		c4.6,39.8-21.9,58.1,21.4,124.7c11,48.7,10.4,97.4,42.7,146c-7.5,61.5,32.2,89.3,70.4,118.2"/>
	<path fill="none" stroke="#154E73" stroke-width="8" stroke-linecap="round" stroke-linejoin="round" d="M893.4,1313.7
		c77,18.8,138,29.5,185.1,2.6c71.6,10.1,116.5,3.4,134.7-23.9"/>
	<path fill="none" stroke="#154E73" stroke-width="8" stroke-linecap="round" stroke-linejoin="round" d="M1033,1410.2
		c49.2,22.4,107,49.7,188.4-1.7"/>
	<path fill="none" stroke="#154E73" stroke-width="8" stroke-linecap="round" stroke-linejoin="round" d="M1040.1,1524.1
		c41.4,26.4,84.8,49.1,146,39.2"/>
	<path fill="none" stroke="#154E73" stroke-width="8" stroke-linecap="round" stroke-linejoin="round" d="M1021.8,1639
		c30.7,28.7,74.6,53,128.7,38.4"/>
	<path fill="none" stroke="#154E73" stroke-width="8" stroke-linecap="round" stroke-linejoin="round" d="M982.5,1741.8
		c31.1,24.4,74,61.3,118.2,49.5"/>
	<path fill="none" stroke="#154E73" stroke-width="8" stroke-linecap="round" stroke-linejoin="round" d="M951,1869.7
		c9,39.6,55.3,50.1,92.6,67.7"/>
	<path fill="none" stroke="#154E73" stroke-width="8" stroke-linecap="round" stroke-linejoin="round" d="M883.4,1944.5
		c-0.9,52,32.6,73.4,60.6,99.7"/>
	<path fill="none" stroke="#154E73" stroke-width="8" stroke-linecap="round" stroke-linejoin="round" d="M822.8,1955.2
		c-14.6,52.8-14.2,103.5,21.4,149.6"/>
	<path fill="none" stroke="#154E73" stroke-width="8" stroke-linecap="round" stroke-linejoin="round" d="M737.3,1962.3
		c-36.6,31-50.5,73.3-60.6,117.5"/>
	<path fill="none" stroke="#154E73" stroke-width="8" stroke-linecap="round" stroke-linejoin="round" d="M662.5,1944.5
		c-48.9-6.5-85,9-110.4,42.7"/>
	<path fill="none" stroke="#154E73" stroke-width="8" stroke-linecap="round" stroke-linejoin="round" d="M605.5,1841.2
		c-24.7-5.9-57.7-26.9-76.3-2.3"/>
	<path fill="none" stroke="#154E73" stroke-width="8" stroke-linecap="round" stroke-linejoin="round" d="M602,1751.3
		c-1.9-34.9-19-43.7-44.4-38.4"/>
	<path fill="none" stroke="#154E73" stroke-width="8" stroke-linecap="round" stroke-linejoin="round" d="M687.4,1670.2
		c-4.4-22.7-17.2-42.1-38.4-58.1"/>
	<path fill="none" stroke="#154E73" stroke-width="8" stroke-linecap="round" stroke-linejoin="round" d="M772.9,1680.9
		c13.5-17.7,11.1-43.4,4.6-71.1"/>
</g>
<g transform="translate(-53.88085,-79.78019)" filter="url(#filter6633)">
	<path fill="none" stroke="#154E73" stroke-width="2.9" stroke-linecap="round" stroke-linejoin="round" d="M1250.3,1039.7
		c31.2-0.7,64.4-30.5,92.6,10.7"/>
	<path fill="none" stroke="#154E73" stroke-width="2.9" stroke-linecap="round" stroke-linejoin="round" d="M1236,1100.3
		c34.9-8.3,68.8-24.1,106.9-7.1"/>
	<path fill="none" stroke="#154E73" stroke-width="2.9" stroke-linecap="round" stroke-linejoin="round" d="M1232.4,1139.4
		c53,2.2,91.5,16.9,121.1,39.2"/>
	<path fill="none" stroke="#154E73" stroke-width="2.9" stroke-linecap="round" stroke-linejoin="round" d="M1227.8,1213.6
		c27.8-15.5,123.8,4.1,114,15.3"/>
</g>
<g filter="url(#filter6871)">
	<path fill="#2D6A7E" d="M639.6,220.9c40.5,14.9,28.5,37.7,33.1,62.2c-7.8,35-25.1,41.8-53.4,39.2c-39.5-9.4-31.4-28.6-36.1-57
		C596.1,223,620.4,214.7,639.6,220.9L639.6,220.9z"/>
</g>
<g filter="url(#filter6744)">
	<path fill="none" stroke="#154E73" stroke-width="2.9" stroke-linecap="round" stroke-linejoin="round" d="M1199.7,929.4
		c31.7-14.9,64.5-20.2,99.5-5"/>
</g>
<g filter="url(#filter6740)">
	<path fill="none" stroke="#154E73" stroke-width="2.9" stroke-linecap="round" stroke-linejoin="round" d="M1187.1,991.1
		c36.9-19.6,73.9-29.8,110.8,3.8"/>
</g>
<g filter="url(#filter6736)">
	<path fill="none" stroke="#154E73" stroke-width="2.9" stroke-linecap="round" stroke-linejoin="round" d="M1179.6,1041.5
		c42.7-6.1,85.3-12.3,124.7,17.6"/>
</g>
<g filter="url(#filter6732)">
	<path fill="none" stroke="#154E73" stroke-width="2.9" stroke-linecap="round" stroke-linejoin="round" d="M1175.8,1094.4
		c39.1-1.1,86.8,4.1,103.3,29"/>
</g>
<g filter="url(#filter6728)">
	<path fill="none" stroke="#154E73" stroke-width="2.9" stroke-linecap="round" stroke-linejoin="round" d="M1178.3,1154.8
		c40.9,7.9,86.3,12.4,98.2,42.8"/>
</g>
<path fill="#3C8CA7" d="M910.5,132.3c-21.3,0.5-43.6,7.5-59,22.3c11.2,14.2,25.8,26.2,35.9,41.4c15.6,22,24.3,49.3,22.5,76.6
	c0.9,23.8-1.6,47.5-6.7,70.5c1.5,6.5,10.5,2.4,15,4.9c16,3.5,30.1,13.5,46.8,14.7c24.3,3.9,48.9-2.3,72-9.2c4.2-1,12.9-4.7,7.3-9.8
	c-2-4-9.8-6.7-8.5-11.7c2.3-5.3,11.8-3.3,11.9-9.6c-5.7-6.4-16.8-5-23.1-10.8c-3-5.6,5.7-7.8,9.4-9.1c5.2-1.3,3.1-7.2-1-8.5
	c-5.5-4.4-14-6.9-17-13.5c3.8-7.3,15.3-2.6,19.8-8.7c-0.2-6.8-9.5-7.9-13.7-12.1c-3.4-1.8-6.8-6.3-2-8.9c4-4.6,14.1-5.7,14.3-12.9
	c-4.9-6.6-15-6-22-9.5c-3.5-1.9-13.7-3-10.9-9.1c4.7-5.6,16.2-6,16.9-14.5c-3.2-6.9-13.2-5.1-19.6-6c-4-1-12.6,1-13.1-4.9
	c1.9-6.2,11-5.4,15.7-8.5c5.3-2.1,1.6-7.7-2.3-9c-4.4-3.6-13.2-5.9-13.5-12.5c3.6-4.2,14.2,0.9,13.5-6c-5.8-8.7-12.4-19-24.1-19.5
	C953.7,135.1,932.1,132,910.5,132.3z"/>
<g transform="translate(-53.88085,-79.78019)">
	<g filter="url(#filter6784)">
		<path fill="none" stroke="#154E73" stroke-width="2.9" stroke-linecap="round" stroke-linejoin="round" d="M939.7,263.4
			c24.3-21.6,58.7-27.9,103.1-19.3"/>
	</g>
	<g filter="url(#filter6780)">
		<path fill="none" stroke="#154E73" stroke-width="2.9" stroke-linecap="round" stroke-linejoin="round" d="M956.7,286.8
			c25.1-12.7,67.4-23.1,96-5.3"/>
	</g>
	<g filter="url(#filter6776)">
		<path fill="none" stroke="#154E73" stroke-width="2.9" stroke-linecap="round" stroke-linejoin="round" d="M962.9,340.3
			c33-5.8,55-23.7,122.7,8.4"/>
	</g>
	<g filter="url(#filter6772)">
		<path fill="none" stroke="#154E73" stroke-width="2.9" stroke-linecap="round" stroke-linejoin="round" d="M961.7,400
			c30.3-6.8,47.9-22.4,129.1,5.9"/>
	</g>
	<g filter="url(#filter6834)">
		<path fill="none" stroke="#154E73" stroke-width="2.9" stroke-linecap="round" stroke-linejoin="round" d="M918.6,240.9
			c27.7-21.6,72.8-13.5,113.3-12.6"/>
	</g>
	<g filter="url(#filter6830)">
		<path fill="none" stroke="#154E73" stroke-width="2.9" stroke-linecap="round" stroke-linejoin="round" d="M961.4,314
			c26.8-11.5,52.9-24.6,89.4-10.1"/>
	</g>
	<g filter="url(#filter6826)">
		<path fill="none" stroke="#154E73" stroke-width="2.9" stroke-linecap="round" stroke-linejoin="round" d="M970.3,364.3
			c32.3-12,64.6-21,97,0"/>
	</g>
	<g filter="url(#filter6822)">
		<path fill="none" stroke="#154E73" stroke-width="2.9" stroke-linecap="round" stroke-linejoin="round" d="M960.2,413.5
			c52.3,19.9,89,12.6,128.5,10.1"/>
	</g>
</g>
<g filter="url(#filter6922)">
	<path fill="#1E4653" d="M642.3,269.9c5.4,15.5-1,33.2-14.2,39.5c-13.2,6.3-28.3-1.1-33.7-16.6s1-33.2,14.2-39.5
		c12.9-6.2,27.6,0.8,33.3,15.7"/>
</g>
</svg>
